<svg class="thumb" width="1000" height="1000" viewBox="0,0,600,600" xmlns="http://www.w3.org/2000/svg" xmlns:inkscape="http://www.inkscape.org/namespaces/inkscape" xmlns:sodipodi="http://sodipodi.sourceforge.net/DTD/sodipodi-0.dtd" xmlns:xlink="http://www.w3.org/1999/xlink" xmlns:ns1="http://www.inkscape.org/namespaces/inkscape" xmlns:sketch="http://www.bohemiancoding.com/sketch/ns">
  <defs></defs>
  <g transform="matrix(5.0132,0,0,5.0132,-2316.6561,-1055.5501)">
    <g transform="matrix(0.3752,0,0,0.5887,486.9169,217.2489)">
      <svg width="187.0337218024264" height="186.77" viewBox="-5.131860901213205,-5,187.0337218024264,186.77" class="thumb">
        <defs>
          <linearGradient x1="0" y1="0.5" x2="1" y2="0.5" id="linearGradientSkfessbal4">
            <stop offset="0%" stop-color="#fad13e"></stop>
            <stop offset="100%" stop-color="#cf1717"></stop>
          </linearGradient>
        </defs>
        <g></g>
        <g></g>
        <g></g>
        <g></g>
        <g></g>
        <g></g>
        <g></g>
        <g></g>
        <g></g>
        <g>
          <circle cx="88.385" cy="88.385" r="88.385" fill="url('#linearGradientSkfessbal4')" stroke="none" style=""></circle>
        </g>
      </svg>
    </g>
    <g transform="matrix(0.6936,0,0,1.0852,485.2814,211.1143)">
      <svg width="103.542" height="103.542" viewBox="-1.7710000000000008,-3.3280000000000003,103.542,103.542">
        <defs>
          <linearGradient x1="0" y1="0.5" x2="1" y2="0.5" id="linearGradientSkfessbala">
            <stop offset="0%" stop-color="#9f060b"></stop>
            <stop offset="100%" stop-color="#9f060b"></stop>
          </linearGradient>
        </defs>
        <g></g>
        <g></g>
        <g></g>
        <g></g>
        <g></g>
        <g></g>
        <g></g>
        <g></g>
        <g></g>
        <g>
          <path fill="url('#linearGradientSkfessbala')" d="M50,1.672c-25.831,0-46.771,20.939-46.771,46.771S24.169,95.214,50,95.214s46.771-20.94,46.771-46.771  S75.831,1.672,50,1.672z M67.351,80.238c-8.062,2.384-15.516,5.731-22.72,9.542c-1.612,0.853-2.533-0.292-3.167-1.781L24.327,47.69  c-2.019-4.748,2.811-8.527,4.535-4.643c1.575,3.55,3.328,7.019,4.993,10.527c0.76,1.602,1.936,1.992,0.955-0.493  c-1.529-3.878-3.437-7.595-5.156-11.394c-2.621-5.795,2.931-8.311,4.428-4.633l4.476,10.992c1.178,2.355,1.785,1.834,0.974-0.165  l-4.859-11.958c-1.686-4.145,3.582-6.824,5.292-2.934c1.7,3.866,3.469,7.704,5.059,11.617c0.702,1.728,1.934,2.128,0.974-0.167  c-1.035-2.472-1.972-4.984-2.956-7.478c-2.008-4.839,3.455-6.453,5.242-1.949C54.659,49.25,61.468,63.24,68.689,76.989  C69.499,78.53,68.946,79.767,67.351,80.238z M60.8,35.332c-3.308-2.104-5.979,2.287-6.389,8.975l-1.484-3.317  c0.473-7.242,5.125-9.778,8.461-8.01c7.822,4.143,1.088,17.211,0.623,27.605c-0.582-0.946-1.463-3.367-2.045-4.311  C60.892,48.857,65.37,38.243,60.8,35.332z M74.314,67.571l-7.966,1.801l-1.446-2.92l7.679-1.869  c-3.16-14.483-4.425-29.291-4.535-44.489c-0.012-1.499,0.09-2.841,0.008-4.345c-0.187-3.412-4.494-3.022-4.475-0.492l0.055,7.53  c0.016,2.005-3.213,2.021-3.164-0.327l0.219-10.913c0.072-3.658-4.454-2.273-4.475-0.234l-0.109,11.477  c-0.021,2.083-2.838,1.92-2.838,0v-9.931c0-2.45-4.744-1.74-4.692,0.653l0.328,14.732c0.045,2.03-2.652,1.708-2.619,0.327  c0.094-3.927-0.073-7.856-0.109-11.785c-0.026-2.826-3.789-2.679-3.874,1.146c-0.099,4.438-0.018,8.27-0.055,12.707l-2.182-1.466  l-0.219-11.746c-0.092-4.872,5.71-6.059,6.883-4.02c-0.104-4.52,5.74-6.258,7.957-3.713c1.492-4.438,7.84-3.514,8.401,1.201  c4.593-1.77,7.802,0.938,7.804,5.072c0.002,1.215,0.111,2.206,0.123,3.31c0.134,15.416,1.4,30.606,5.047,45.511  C76.474,66.475,75.521,67.297,74.314,67.571z" stroke="none" style=""></path>
        </g>
      </svg>
    </g>
    <g transform="matrix(2.7273,0,0,2.7273,21.9091,171.7273)">
      <svg width="25.533" height="42.73" viewBox="9.977999999999998,57.443000000000005,25.533,42.73">
        <defs>
          <linearGradient x1="0" y1="0.5" x2="1" y2="0.5" id="linearGradientSkfessbalg">
            <stop offset="0%" stop-color="#000000"></stop>
            <stop offset="100%" stop-color="#000000"></stop>
          </linearGradient>
        </defs>
        <g></g>
        <g></g>
        <g></g>
        <g></g>
        <g></g>
        <g></g>
        <g></g>
        <g></g>
        <g></g>
        <g>
          <path display="none" d="M30.511,92.747c0,1.338-1.16,2.426-2.59,2.426H17.569c-1.431,0-2.591-1.086-2.591-2.426v-27.88  c0-1.338,1.16-2.424,2.591-2.424h10.352c1.431,0,2.59,1.086,2.59,2.424V92.747z" fill="url('#linearGradientSkfessbalg')" stroke="none" style=""></path>
        </g>
      </svg>
    </g>
    <g transform="matrix(2.7273,0,0,2.7273,0.3638,14.8183)">
      <svg width="109.99900000000001" height="83.98079787608594" viewBox="-5,-0.17329787608594582,109.99900000000001,83.98079787608594">
        <defs>
          <linearGradient x1="0" y1="0.5" x2="1" y2="0.5" id="linearGradientSkfessbalm">
            <stop offset="0%" stop-color="#000000"></stop>
            <stop offset="100%" stop-color="#000000"></stop>
          </linearGradient>
        </defs>
        <g></g>
        <g></g>
        <g></g>
        <g></g>
        <g></g>
        <g></g>
        <g></g>
        <g></g>
        <g></g>
        <g>
          <path display="none" d="M50.819,4.827C50.527,4.823,50.267,4.86,50,4.895c-0.265-0.035-0.527-0.071-0.818-0.067  C22.049,5.293,0.467,26.875,0,54.009c0,6.656,0,13.313,0,19.97c0,6.438,9.985,6.438,9.985,0c0-6.655,0-13.313,0-19.97  c0.374-21.667,17.53-38.823,39.197-39.195c0.291-0.005,0.554-0.053,0.818-0.096c0.267,0.043,0.527,0.091,0.819,0.095  c21.666,0.373,38.823,17.528,39.197,39.196c0,6.654,0,13.312,0,19.97c0,6.438,9.983,6.438,9.983,0c0-6.656,0-13.313,0-19.97  C99.531,26.875,77.953,5.293,50.819,4.827z" fill="url('#linearGradientSkfessbalm')" stroke="none" style=""></path>
        </g>
      </svg>
    </g>
    <g transform="matrix(2.7273,0,0,2.7273,169.9091,171.7273)">
      <svg width="25.529000000000025" height="42.73" viewBox="64.49199999999999,57.443000000000005,25.529000000000025,42.73">
        <defs>
          <linearGradient x1="0" y1="0.5" x2="1" y2="0.5" id="linearGradientSkfessbals">
            <stop offset="0%" stop-color="#000000"></stop>
            <stop offset="100%" stop-color="#000000"></stop>
          </linearGradient>
        </defs>
        <g></g>
        <g></g>
        <g></g>
        <g></g>
        <g></g>
        <g></g>
        <g></g>
        <g></g>
        <g></g>
        <g>
          <path display="none" d="M69.492,92.747c0,1.338,1.159,2.426,2.587,2.426h10.355c1.429,0,2.587-1.086,2.587-2.426v-27.88  c0-1.338-1.158-2.424-2.587-2.424H72.079c-1.428,0-2.587,1.086-2.587,2.424V92.747z" fill="url('#linearGradientSkfessbals')" stroke="none" style=""></path>
        </g>
      </svg>
    </g>
    <g transform="matrix(2.7273,0,0,2.7273,71.2728,0.0002)">
      <svg width="57.715999999999994" height="110" viewBox="21.141000000000005,-5,57.715999999999994,110">
        <defs>
          <linearGradient x1="0" y1="0.5" x2="1" y2="0.5" id="linearGradientSkfessbaly">
            <stop offset="0%" stop-color="#000000"></stop>
            <stop offset="100%" stop-color="#000000"></stop>
          </linearGradient>
        </defs>
        <g></g>
        <g></g>
        <g></g>
        <g></g>
        <g></g>
        <g></g>
        <g></g>
        <g></g>
        <g></g>
        <g>
          <path display="none" d="M73.857,23.889c0-1.889-1.146-3.508-2.781-4.199c0.811-0.824,1.313-1.952,1.313-3.199  c0-2.506-2.02-4.536-4.521-4.557c0.216-0.529,0.335-1.105,0.335-1.711c0-2.519-2.04-4.56-4.56-4.56c-0.603,0-1.173,0.118-1.7,0.331  c-0.021-2.5-2.05-4.521-4.557-4.521c-1.242,0-2.367,0.499-3.189,1.306C53.505,1.145,51.887,0,50,0c-1.886,0-3.503,1.145-4.197,2.779  c-0.822-0.807-1.946-1.306-3.19-1.306c-2.505,0-4.537,2.02-4.556,4.521c-0.527-0.21-1.1-0.331-1.701-0.331  c-2.519,0-4.561,2.041-4.561,4.56c0,0.604,0.121,1.182,0.334,1.711c-2.498,0.021-4.518,2.051-4.518,4.555  c0,1.249,0.5,2.375,1.311,3.199c-1.633,0.692-2.779,2.311-2.781,4.196l0,0c0,0,0,0.002,0,0.005c0,0.002,0,0.004,0,0.006v-0.002  c0,1.888,1.148,3.504,2.781,4.196c-0.81,0.823-1.311,1.951-1.311,3.198c0,2.505,2.02,4.535,4.519,4.557  c-0.214,0.53-0.334,1.105-0.334,1.711c0,2.52,2.041,4.559,4.56,4.559c0.602,0,1.174-0.118,1.701-0.331  c0.018,2.002,1.321,3.692,3.125,4.288L29.73,97.133l7.873-5.165L42.515,100L50,66.62L57.484,100l4.914-8.032l7.871,5.166  L58.819,46.07c1.805-0.596,3.108-2.286,3.126-4.288c0.525,0.213,1.098,0.331,1.698,0.331c2.521,0,4.561-2.041,4.561-4.559  c0-0.604-0.12-1.181-0.334-1.711c2.499-0.021,4.519-2.052,4.519-4.557c0-1.247-0.502-2.375-1.312-3.199  C72.711,27.396,73.857,25.777,73.857,23.889z M50,38.715c-8.189,0-14.829-6.638-14.829-14.829c0-8.187,6.64-14.825,14.829-14.825  c8.188,0,14.827,6.639,14.827,14.825C64.827,32.078,58.188,38.715,50,38.715z" fill="url('#linearGradientSkfessbaly')" stroke="none" style=""></path>
        </g>
      </svg>
    </g>
    <g transform="matrix(2.7273,0,0,2.7273,52.1819,0.0002)">
      <svg width="71.78800000000001" height="110" viewBox="14.106000000000002,-5,71.78800000000001,110">
        <defs>
          <linearGradient x1="0" y1="0.5" x2="1" y2="0.5" id="linearGradientSkfessbal14">
            <stop offset="0%" stop-color="#000000"></stop>
            <stop offset="100%" stop-color="#000000"></stop>
          </linearGradient>
        </defs>
        <g></g>
        <g></g>
        <g></g>
        <g></g>
        <g></g>
        <g></g>
        <g></g>
        <g></g>
        <g></g>
        <g>
          <path display="none" d="M50,100h4.559V76.896l0.002,0.003h25.463c0.493-0.006,0.87-0.525,0.87-1.037c0-0.188-0.05-0.363-0.142-0.516  L67.459,52.984c-0.145-0.241-0.345-0.922,0.424-1.051l3.313-0.336c0.49-0.007,0.863-0.525,0.863-1.038  c0-0.187-0.053-0.362-0.142-0.515l-10.688-18.34c-0.215-0.335-0.117-0.824,0.338-0.893l1.934-0.331  c0.488-0.082,0.773-0.66,0.688-1.167c-0.021-0.12-0.062-0.231-0.116-0.33l-7.708-13.359c-0.15-0.284,0.027-0.623,0.283-0.7  l1.008-0.306c0.476-0.143,0.688-0.756,0.537-1.249c-0.023-0.078-0.057-0.154-0.098-0.22L50.749,0.428C50.59,0.173,50.321,0,50,0  c-0.322,0-0.59,0.173-0.749,0.428l-7.346,12.725c-0.037,0.066-0.07,0.141-0.096,0.22c-0.149,0.491,0.063,1.104,0.537,1.248  l1.008,0.306c0.257,0.078,0.436,0.417,0.286,0.7L35.93,28.985c-0.055,0.099-0.094,0.212-0.114,0.33  c-0.087,0.507,0.199,1.085,0.687,1.169l1.935,0.328c0.454,0.069,0.552,0.559,0.337,0.894l-10.69,18.339  c-0.089,0.152-0.141,0.327-0.141,0.515c0,0.512,0.374,1.031,0.862,1.038l3.312,0.336c0.768,0.129,0.569,0.81,0.426,1.051  L19.248,75.346c-0.092,0.151-0.142,0.326-0.142,0.514c0,0.513,0.379,1.033,0.871,1.039h25.462l0.005-0.006V100H50z" fill="url('#linearGradientSkfessbal14')" stroke="none" style=""></path>
        </g>
      </svg>
    </g>
  </g>
</svg>