<svg class="thumb" width="1000" height="1000" viewBox="0,0,600,600" xmlns="http://www.w3.org/2000/svg" xmlns:inkscape="http://www.inkscape.org/namespaces/inkscape" xmlns:sodipodi="http://sodipodi.sourceforge.net/DTD/sodipodi-0.dtd" xmlns:xlink="http://www.w3.org/1999/xlink" xmlns:ns1="http://www.inkscape.org/namespaces/inkscape" xmlns:sketch="http://www.bohemiancoding.com/sketch/ns">
  <defs></defs>
  <g transform="matrix(0.3565,0,0,0.3565,-1.5366,208.0574)">
    <g transform="matrix(0.3752,0,0,0.5887,873.6129,217.2489)">
      <svg width="187.0337218024264" height="186.77" viewBox="-5.131860901213205,-5,187.0337218024264,186.77" class="thumb">
        <defs>
          <linearGradient x1="0" y1="0.5" x2="1" y2="0.5" id="linearGradientSkfepcdc04">
            <stop offset="0%" stop-color="#fad13e"></stop>
            <stop offset="100%" stop-color="#cf1717"></stop>
          </linearGradient>
        </defs>
        <g></g>
        <g></g>
        <g></g>
        <g></g>
        <g></g>
        <g></g>
        <g></g>
        <g></g>
        <g>
          <circle cx="88.385" cy="88.385" r="88.385" fill="url('#linearGradientSkfepcdc04')" stroke="none" style=""></circle>
        </g>
      </svg>
    </g>
    <g transform="matrix(0.6936,0,0,1.0852,871.9774,211.1143)">
      <svg width="103.542" height="103.542" viewBox="-1.7710000000000008,-3.3280000000000003,103.542,103.542">
        <defs>
          <linearGradient x1="0" y1="0.5" x2="1" y2="0.5" id="linearGradientSkfepcdc0a">
            <stop offset="0%" stop-color="#9f060b"></stop>
            <stop offset="100%" stop-color="#9f060b"></stop>
          </linearGradient>
        </defs>
        <g></g>
        <g></g>
        <g></g>
        <g></g>
        <g></g>
        <g></g>
        <g></g>
        <g></g>
        <g>
          <path fill="url('#linearGradientSkfepcdc0a')" d="M50,1.672c-25.831,0-46.771,20.939-46.771,46.771S24.169,95.214,50,95.214s46.771-20.94,46.771-46.771  S75.831,1.672,50,1.672z M67.351,80.238c-8.062,2.384-15.516,5.731-22.72,9.542c-1.612,0.853-2.533-0.292-3.167-1.781L24.327,47.69  c-2.019-4.748,2.811-8.527,4.535-4.643c1.575,3.55,3.328,7.019,4.993,10.527c0.76,1.602,1.936,1.992,0.955-0.493  c-1.529-3.878-3.437-7.595-5.156-11.394c-2.621-5.795,2.931-8.311,4.428-4.633l4.476,10.992c1.178,2.355,1.785,1.834,0.974-0.165  l-4.859-11.958c-1.686-4.145,3.582-6.824,5.292-2.934c1.7,3.866,3.469,7.704,5.059,11.617c0.702,1.728,1.934,2.128,0.974-0.167  c-1.035-2.472-1.972-4.984-2.956-7.478c-2.008-4.839,3.455-6.453,5.242-1.949C54.659,49.25,61.468,63.24,68.689,76.989  C69.499,78.53,68.946,79.767,67.351,80.238z M60.8,35.332c-3.308-2.104-5.979,2.287-6.389,8.975l-1.484-3.317  c0.473-7.242,5.125-9.778,8.461-8.01c7.822,4.143,1.088,17.211,0.623,27.605c-0.582-0.946-1.463-3.367-2.045-4.311  C60.892,48.857,65.37,38.243,60.8,35.332z M74.314,67.571l-7.966,1.801l-1.446-2.92l7.679-1.869  c-3.16-14.483-4.425-29.291-4.535-44.489c-0.012-1.499,0.09-2.841,0.008-4.345c-0.187-3.412-4.494-3.022-4.475-0.492l0.055,7.53  c0.016,2.005-3.213,2.021-3.164-0.327l0.219-10.913c0.072-3.658-4.454-2.273-4.475-0.234l-0.109,11.477  c-0.021,2.083-2.838,1.92-2.838,0v-9.931c0-2.45-4.744-1.74-4.692,0.653l0.328,14.732c0.045,2.03-2.652,1.708-2.619,0.327  c0.094-3.927-0.073-7.856-0.109-11.785c-0.026-2.826-3.789-2.679-3.874,1.146c-0.099,4.438-0.018,8.27-0.055,12.707l-2.182-1.466  l-0.219-11.746c-0.092-4.872,5.71-6.059,6.883-4.02c-0.104-4.52,5.74-6.258,7.957-3.713c1.492-4.438,7.84-3.514,8.401,1.201  c4.593-1.77,7.802,0.938,7.804,5.072c0.002,1.215,0.111,2.206,0.123,3.31c0.134,15.416,1.4,30.606,5.047,45.511  C76.474,66.475,75.521,67.297,74.314,67.571z" stroke="none" style=""></path>
        </g>
      </svg>
    </g>
    <g transform="matrix(2.7273,0,0,2.7273,408.6051,171.7273)">
      <svg width="25.533" height="42.73" viewBox="9.977999999999998,57.443000000000005,25.533,42.73">
        <defs>
          <linearGradient x1="0" y1="0.5" x2="1" y2="0.5" id="linearGradientSkfepcdc0g">
            <stop offset="0%" stop-color="#000000"></stop>
            <stop offset="100%" stop-color="#000000"></stop>
          </linearGradient>
        </defs>
        <g></g>
        <g></g>
        <g></g>
        <g></g>
        <g></g>
        <g></g>
        <g></g>
        <g></g>
        <g>
          <path display="none" d="M30.511,92.747c0,1.338-1.16,2.426-2.59,2.426H17.569c-1.431,0-2.591-1.086-2.591-2.426v-27.88  c0-1.338,1.16-2.424,2.591-2.424h10.352c1.431,0,2.59,1.086,2.59,2.424V92.747z" fill="url('#linearGradientSkfepcdc0g')" stroke="none" style=""></path>
        </g>
      </svg>
    </g>
    <g transform="matrix(2.7273,0,0,2.7273,387.0598,14.8183)">
      <svg width="109.99900000000001" height="83.98079787608594" viewBox="-5,-0.17329787608594582,109.99900000000001,83.98079787608594">
        <defs>
          <linearGradient x1="0" y1="0.5" x2="1" y2="0.5" id="linearGradientSkfepcdc0m">
            <stop offset="0%" stop-color="#000000"></stop>
            <stop offset="100%" stop-color="#000000"></stop>
          </linearGradient>
        </defs>
        <g></g>
        <g></g>
        <g></g>
        <g></g>
        <g></g>
        <g></g>
        <g></g>
        <g></g>
        <g>
          <path display="none" d="M50.819,4.827C50.527,4.823,50.267,4.86,50,4.895c-0.265-0.035-0.527-0.071-0.818-0.067  C22.049,5.293,0.467,26.875,0,54.009c0,6.656,0,13.313,0,19.97c0,6.438,9.985,6.438,9.985,0c0-6.655,0-13.313,0-19.97  c0.374-21.667,17.53-38.823,39.197-39.195c0.291-0.005,0.554-0.053,0.818-0.096c0.267,0.043,0.527,0.091,0.819,0.095  c21.666,0.373,38.823,17.528,39.197,39.196c0,6.654,0,13.312,0,19.97c0,6.438,9.983,6.438,9.983,0c0-6.656,0-13.313,0-19.97  C99.531,26.875,77.953,5.293,50.819,4.827z" fill="url('#linearGradientSkfepcdc0m')" stroke="none" style=""></path>
        </g>
      </svg>
    </g>
    <g transform="matrix(2.7273,0,0,2.7273,556.6051,171.7273)">
      <svg width="25.529000000000025" height="42.73" viewBox="64.49199999999999,57.443000000000005,25.529000000000025,42.73">
        <defs>
          <linearGradient x1="0" y1="0.5" x2="1" y2="0.5" id="linearGradientSkfepcdc0s">
            <stop offset="0%" stop-color="#000000"></stop>
            <stop offset="100%" stop-color="#000000"></stop>
          </linearGradient>
        </defs>
        <g></g>
        <g></g>
        <g></g>
        <g></g>
        <g></g>
        <g></g>
        <g></g>
        <g></g>
        <g>
          <path display="none" d="M69.492,92.747c0,1.338,1.159,2.426,2.587,2.426h10.355c1.429,0,2.587-1.086,2.587-2.426v-27.88  c0-1.338-1.158-2.424-2.587-2.424H72.079c-1.428,0-2.587,1.086-2.587,2.424V92.747z" fill="url('#linearGradientSkfepcdc0s')" stroke="none" style=""></path>
        </g>
      </svg>
    </g>
    <g transform="matrix(2.7273,0,0,2.7273,457.9688,0.0002)">
      <svg width="57.715999999999994" height="110" viewBox="21.141000000000005,-5,57.715999999999994,110">
        <defs>
          <linearGradient x1="0" y1="0.5" x2="1" y2="0.5" id="linearGradientSkfepcdc0y">
            <stop offset="0%" stop-color="#000000"></stop>
            <stop offset="100%" stop-color="#000000"></stop>
          </linearGradient>
        </defs>
        <g></g>
        <g></g>
        <g></g>
        <g></g>
        <g></g>
        <g></g>
        <g></g>
        <g></g>
        <g>
          <path display="none" d="M73.857,23.889c0-1.889-1.146-3.508-2.781-4.199c0.811-0.824,1.313-1.952,1.313-3.199  c0-2.506-2.02-4.536-4.521-4.557c0.216-0.529,0.335-1.105,0.335-1.711c0-2.519-2.04-4.56-4.56-4.56c-0.603,0-1.173,0.118-1.7,0.331  c-0.021-2.5-2.05-4.521-4.557-4.521c-1.242,0-2.367,0.499-3.189,1.306C53.505,1.145,51.887,0,50,0c-1.886,0-3.503,1.145-4.197,2.779  c-0.822-0.807-1.946-1.306-3.19-1.306c-2.505,0-4.537,2.02-4.556,4.521c-0.527-0.21-1.1-0.331-1.701-0.331  c-2.519,0-4.561,2.041-4.561,4.56c0,0.604,0.121,1.182,0.334,1.711c-2.498,0.021-4.518,2.051-4.518,4.555  c0,1.249,0.5,2.375,1.311,3.199c-1.633,0.692-2.779,2.311-2.781,4.196l0,0c0,0,0,0.002,0,0.005c0,0.002,0,0.004,0,0.006v-0.002  c0,1.888,1.148,3.504,2.781,4.196c-0.81,0.823-1.311,1.951-1.311,3.198c0,2.505,2.02,4.535,4.519,4.557  c-0.214,0.53-0.334,1.105-0.334,1.711c0,2.52,2.041,4.559,4.56,4.559c0.602,0,1.174-0.118,1.701-0.331  c0.018,2.002,1.321,3.692,3.125,4.288L29.73,97.133l7.873-5.165L42.515,100L50,66.62L57.484,100l4.914-8.032l7.871,5.166  L58.819,46.07c1.805-0.596,3.108-2.286,3.126-4.288c0.525,0.213,1.098,0.331,1.698,0.331c2.521,0,4.561-2.041,4.561-4.559  c0-0.604-0.12-1.181-0.334-1.711c2.499-0.021,4.519-2.052,4.519-4.557c0-1.247-0.502-2.375-1.312-3.199  C72.711,27.396,73.857,25.777,73.857,23.889z M50,38.715c-8.189,0-14.829-6.638-14.829-14.829c0-8.187,6.64-14.825,14.829-14.825  c8.188,0,14.827,6.639,14.827,14.825C64.827,32.078,58.188,38.715,50,38.715z" fill="url('#linearGradientSkfepcdc0y')" stroke="none" style=""></path>
        </g>
      </svg>
    </g>
    <g transform="matrix(2.7273,0,0,2.7273,438.8779,0.0002)">
      <svg width="71.78800000000001" height="110" viewBox="14.106000000000002,-5,71.78800000000001,110">
        <defs>
          <linearGradient x1="0" y1="0.5" x2="1" y2="0.5" id="linearGradientSkfepcdc014">
            <stop offset="0%" stop-color="#000000"></stop>
            <stop offset="100%" stop-color="#000000"></stop>
          </linearGradient>
        </defs>
        <g></g>
        <g></g>
        <g></g>
        <g></g>
        <g></g>
        <g></g>
        <g></g>
        <g></g>
        <g>
          <path display="none" d="M50,100h4.559V76.896l0.002,0.003h25.463c0.493-0.006,0.87-0.525,0.87-1.037c0-0.188-0.05-0.363-0.142-0.516  L67.459,52.984c-0.145-0.241-0.345-0.922,0.424-1.051l3.313-0.336c0.49-0.007,0.863-0.525,0.863-1.038  c0-0.187-0.053-0.362-0.142-0.515l-10.688-18.34c-0.215-0.335-0.117-0.824,0.338-0.893l1.934-0.331  c0.488-0.082,0.773-0.66,0.688-1.167c-0.021-0.12-0.062-0.231-0.116-0.33l-7.708-13.359c-0.15-0.284,0.027-0.623,0.283-0.7  l1.008-0.306c0.476-0.143,0.688-0.756,0.537-1.249c-0.023-0.078-0.057-0.154-0.098-0.22L50.749,0.428C50.59,0.173,50.321,0,50,0  c-0.322,0-0.59,0.173-0.749,0.428l-7.346,12.725c-0.037,0.066-0.07,0.141-0.096,0.22c-0.149,0.491,0.063,1.104,0.537,1.248  l1.008,0.306c0.257,0.078,0.436,0.417,0.286,0.7L35.93,28.985c-0.055,0.099-0.094,0.212-0.114,0.33  c-0.087,0.507,0.199,1.085,0.687,1.169l1.935,0.328c0.454,0.069,0.552,0.559,0.337,0.894l-10.69,18.339  c-0.089,0.152-0.141,0.327-0.141,0.515c0,0.512,0.374,1.031,0.862,1.038l3.312,0.336c0.768,0.129,0.569,0.81,0.426,1.051  L19.248,75.346c-0.092,0.151-0.142,0.326-0.142,0.514c0,0.513,0.379,1.033,0.871,1.039h25.462l0.005-0.006V100H50z" fill="url('#linearGradientSkfepcdc014')" stroke="none" style=""></path>
        </g>
      </svg>
    </g>
    <g transform="matrix(0.9077,0,0,1.7451,92.7127,148.446)">
      <svg width="1686.71875" height="185" style="overflow: visible;">
        <defs>
          <linearGradient x1="1" y1="0.5" x2="0" y2="0.5" id="linearGradientSkfepcdc01c">
            <stop offset="0%" stop-color="#9f060b"></stop>
            <stop offset="100%" stop-color="#fad13e"></stop>
          </linearGradient>
        </defs>
        <g transform="matrix(1,0,0,1,0,93.75)">
          <path d="M-4.680000000000035 0L-4.680000000000035-7.81L 8.509999999999966-7.81L 8.509999999999966-52.98L-4.680000000000035-52.98L-4.680000000000035-60.79L 67.92999999999998-60.79L 67.92999999999998-41.75L 56.94999999999997-41.75L 56.94999999999997-52.98L 19.979999999999965-52.98L 19.979999999999965-33.74L 44.48999999999997-33.74L 44.48999999999997-27.64L 19.979999999999965-27.64L 19.979999999999965-7.81L 56.94999999999997-7.81L 56.94999999999997-19.04L 67.92999999999998-19.04L 67.92999999999998 0L-4.680000000000035 0ZM 59.87999999999996-36.47L 59.87999999999996-38.33L 71.44999999999996-38.33L 71.44999999999996-58.35L 73.39999999999998-58.35L 73.39999999999998-36.47L 59.87999999999996-36.47ZM 23.499999999999964-36.67L 23.499999999999964-49.56L 54.889999999999965-49.56L 54.889999999999965-47.71L 25.449999999999967-47.71L 25.449999999999967-36.67L 23.499999999999964-36.67ZM-1.7500000000000355-47.71L-1.7500000000000355-49.56L 6.459999999999965-49.56L 6.459999999999965-47.71L-1.7500000000000355-47.71ZM 23.499999999999964-10.74L 23.499999999999964-24.22L 47.959999999999965-24.22L 47.959999999999965-31.3L 49.90999999999996-31.3L 49.90999999999996-22.36L 25.449999999999967-22.36L 25.449999999999967-10.74L 23.499999999999964-10.74ZM-1.7500000000000355 3.42L 71.44999999999996 3.42L 71.44999999999996-16.31L 73.39999999999998-16.31L 73.39999999999998 5.27L-1.7500000000000355 5.27L-1.7500000000000355 3.42ZM 89.20007812499988-22.9L 89.20007812499988-22.9Q 89.20007812499988-27.44  91.10007812499987-31.86Q 93.00007812499987-36.28  96.74007812499987-39.77Q 100.47007812499987-43.26  105.99007812499987-45.43Q 111.51007812499986-47.61  118.69007812499987-47.61L 118.69007812499987-47.61Q 120.98007812499986-47.61  123.59007812499988-47.27Q 126.21007812499988-46.92  128.82007812499987-46.14Q 131.43007812499988-45.36  133.92007812499986-44.07Q 136.41007812499987-42.77  138.46007812499988-40.92L 138.46007812499988-40.92L 138.46007812499988-60.3L 127.72007812499987-60.3L 127.72007812499987-68.12L 148.96007812499988-68.12L 148.96007812499988-7.32L 157.2600781249999-7.32L 157.2600781249999 0L 138.46007812499988 0L 138.46007812499988-6.2Q 134.65007812499988-2.49  129.28007812499987-0.51Q 123.91007812499987 1.46  117.61007812499987 1.46L 117.61007812499987 1.46Q 111.61007812499987 1.46  106.43007812499988-0.12Q 101.26007812499986-1.71  97.42007812499988-4.79Q 93.59007812499988-7.86  91.39007812499987-12.4Q 89.20007812499988-16.94  89.20007812499988-22.9ZM 152.48007812499986-10.25L 152.48007812499986-65.63L 154.43007812499985-65.63L 154.43007812499985-10.25L 152.48007812499986-10.25ZM 130.65007812499988-55.03L 130.65007812499988-56.88L 136.41007812499987-56.88L 136.41007812499987-55.03L 130.65007812499988-55.03ZM 99.79007812499987-23.29L 99.79007812499987-23.29Q 99.79007812499987-19.34  101.08007812499987-16.16Q 102.38007812499987-12.99  104.80007812499987-10.74Q 107.21007812499987-8.5  110.66007812499987-7.28Q 114.10007812499987-6.05  118.44007812499987-6.05L 118.44007812499987-6.05Q 120.74007812499987-6.05  123.11007812499987-6.52Q 125.47007812499987-6.98  127.70007812499986-7.93Q 129.92007812499986-8.89  131.90007812499988-10.33Q 133.87007812499988-11.77  135.31007812499988-13.75Q 136.75007812499987-15.72  137.61007812499986-18.26Q 138.46007812499988-20.8  138.46007812499988-23.93L 138.46007812499988-23.93Q 138.46007812499988-27.39  136.85007812499987-30.35Q 135.24007812499985-33.3  132.53007812499987-35.45Q 129.82007812499987-37.6  126.21007812499988-38.82Q 122.59007812499988-40.04  118.59007812499988-40.04L 118.59007812499988-40.04Q 114.68007812499988-40.04  111.27007812499987-38.82Q 107.85007812499987-37.6  105.28007812499987-35.4Q 102.72007812499987-33.2  101.26007812499986-30.1Q 99.79007812499987-27  99.79007812499987-23.29ZM 103.21007812499987-23.29L 103.21007812499987-23.29Q 103.21007812499987-26.07  104.31007812499988-28.47Q 105.41007812499987-30.86  107.41007812499987-32.67Q 109.41007812499987-34.47  112.27007812499987-35.5Q 115.12007812499988-36.52  118.59007812499988-36.52L 118.59007812499988-36.52Q 123.57007812499987-36.52  126.99007812499987-35.06Q 130.41007812499987-33.59  131.63007812499987-31.4L 131.63007812499987-31.4Q 128.99007812499985-33.11  125.69007812499987-33.89Q 122.40007812499988-34.67  118.59007812499988-34.67L 118.59007812499988-34.67Q 115.51007812499986-34.67  113.05007812499987-33.76Q 110.58007812499987-32.86  108.85007812499987-31.3Q 107.12007812499988-29.74  106.16007812499987-27.61Q 105.21007812499987-25.49  105.21007812499987-23.1L 105.21007812499987-23.1Q 105.21007812499987-13.87  115.61007812499987-9.52L 115.61007812499987-9.52Q 112.63007812499987-9.86  110.34007812499988-11.08Q 108.04007812499987-12.3  106.46007812499987-14.14Q 104.87007812499988-15.97  104.04007812499987-18.31Q 103.21007812499987-20.65  103.21007812499987-23.29ZM 141.3900781249999 3.42L 160.78007812499987 3.42L 160.78007812499987-4.59L 162.73007812499986-4.59L 162.73007812499986 5.27L 141.3900781249999 5.27L 141.3900781249999 3.42ZM 95.49007812499987-2.1L 95.49007812499987-2.1Q 97.50007812499987-0.49  100.04007812499987 0.81Q 102.57007812499987 2.1  105.46007812499987 3Q 108.34007812499988 3.91  111.44007812499987 4.39Q 114.54007812499987 4.88  117.66007812499987 4.88L 117.66007812499987 4.88Q 123.08007812499987 4.88  127.79007812499987 3.54Q 132.51007812499986 2.2  136.17007812499986-0.2L 136.17007812499986-0.2L 136.17007812499986 2.05Q 132.51007812499986 4.25  127.70007812499986 5.49Q 122.89007812499987 6.74  117.71007812499988 6.74L 117.71007812499988 6.74Q 109.80007812499987 6.74  104.19007812499987 4.52Q 98.57007812499987 2.29  95.49007812499987-2.1ZM 200.20843749999983 0L 179.44843749999984-39.79L 169.09843749999982-39.79L 169.09843749999982-47.12L 201.61843749999983-47.12L 201.61843749999983-39.79L 191.55843749999983-39.79L 206.50843749999984-9.13L 223.68843749999982-39.79L 213.77843749999982-39.79L 213.77843749999982-47.12L 246.29843749999984-47.12L 246.29843749999984-39.79L 236.62843749999985-39.79L 253.08843749999983-8.74L 267.5884374999998-39.79L 257.4784374999998-39.79L 257.4784374999998-47.12L 288.5384374999998-47.12L 288.5384374999998-39.79L 278.18843749999985-39.79L 258.4084374999998 0L 246.58843749999983 0L 229.84843749999982-31.79L 211.92843749999983 0L 200.20843749999983 0ZM 250.00843749999984 3.42L 260.89843749999983 3.42L 280.7184374999998-36.38L 292.04843749999986-36.38L 292.04843749999986-44.38L 294.00843749999984-44.38L 294.00843749999984-34.52L 281.9884374999998-34.52L 262.2184374999998 5.27L 250.73843749999983 5.27L 250.00843749999984 3.42ZM 242.87843749999985-36.38L 249.81843749999985-36.38L 249.81843749999985-44.38L 251.76843749999983-44.38L 251.76843749999983-34.52L 246.1084374999998-34.52L 254.69843749999984-18.12L 253.6684374999998-15.97L 242.87843749999985-36.38ZM 207.37843749999982-16.16L 197.46843749999982-36.38L 205.13843749999984-36.38L 205.13843749999984-44.38L 207.08843749999983-44.38L 207.08843749999983-34.52L 200.59843749999982-34.52L 208.55843749999983-18.16L 207.37843749999982-16.16ZM 259.8684374999998-34.52L 259.8684374999998-36.38L 263.9784374999998-36.38L 263.0984374999998-34.52L 259.8684374999998-34.52ZM 216.16843749999984-34.52L 216.16843749999984-36.38L 219.73843749999983-36.38L 218.70843749999983-34.52L 216.16843749999984-34.52ZM 171.97843749999984-34.52L 171.97843749999984-36.38L 179.20843749999983-36.38L 180.18843749999982-34.52L 171.97843749999984-34.52ZM 203.13843749999984 3.42L 214.31843749999985 3.42L 230.76843749999983-25.73L 231.89843749999983-23.68L 215.53843749999982 5.27L 203.86843749999983 5.27L 203.13843749999984 3.42ZM 301.6004687499999-23.39L 301.6004687499999-23.39Q 301.6004687499999-27.93  303.50046874999987-32.42Q 305.4004687499999-36.91  309.1404687499999-40.5Q 312.8704687499999-44.09  318.3904687499999-46.34Q 323.9104687499999-48.58  331.0904687499999-48.58L 331.0904687499999-48.58Q 333.38046874999986-48.58  335.9904687499999-48.24Q 338.6104687499999-47.9  341.2204687499999-47.12Q 343.8304687499999-46.34  346.3204687499999-45.04Q 348.81046874999987-43.75  350.8604687499999-41.89L 350.8604687499999-41.89L 350.8604687499999-47.12L 371.8604687499999-47.12L 371.8604687499999-38.82L 361.1204687499999-38.82L 361.1204687499999-7.32L 371.8604687499999-7.32L 371.8604687499999 0L 350.8604687499999 0L 350.8604687499999-6.35Q 348.9604687499999-4.44  346.5404687499999-2.98Q 344.1204687499999-1.51  341.4104687499999-0.54Q 338.7004687499999 0.44  335.8004687499999 0.95Q 332.89046874999985 1.46  330.01046874999986 1.46L 330.01046874999986 1.46Q 322.9804687499999 1.46  317.6604687499999-0.54Q 312.3404687499999-2.54  308.7704687499999-5.93Q 305.2104687499999-9.33  303.4004687499999-13.84Q 301.6004687499999-18.36  301.6004687499999-23.39ZM 364.63046874999986-10.25L 364.63046874999986-35.4L 375.3704687499999-35.4L 375.3704687499999-43.41L 377.3304687499999-43.41L 377.3304687499999-33.54L 366.5904687499999-33.54L 366.5904687499999-10.25L 364.63046874999986-10.25ZM 312.19046874999987-23.78L 312.19046874999987-23.78Q 312.19046874999987-19.73  313.63046874999986-16.46Q 315.07046874999986-13.18  317.56046874999987-10.89Q 320.0504687499999-8.59  323.4704687499999-7.32Q 326.8904687499999-6.05  330.8404687499999-6.05L 330.8404687499999-6.05Q 333.14046874999985-6.05  335.51046874999986-6.52Q 337.8704687499999-6.98  340.1004687499999-7.93Q 342.3204687499999-8.89  344.3004687499999-10.33Q 346.2704687499999-11.77  347.7104687499999-13.75Q 349.1504687499999-15.72  350.01046874999986-18.26Q 350.8604687499999-20.8  350.8604687499999-23.93L 350.8604687499999-23.93Q 350.8604687499999-27.39  349.25046874999987-30.49Q 347.64046874999985-33.59  344.9304687499999-35.94Q 342.2204687499999-38.28  338.6104687499999-39.65Q 334.9904687499999-41.02  330.9904687499999-41.02L 330.9904687499999-41.02Q 326.9904687499999-41.02  323.5404687499999-39.79Q 320.1004687499999-38.57  317.5904687499999-36.33Q 315.07046874999986-34.08  313.63046874999986-30.88Q 312.19046874999987-27.69  312.19046874999987-23.78ZM 315.56046874999987-23.54L 315.56046874999987-23.54Q 315.56046874999987-26.61  316.7104687499999-29.17Q 317.8604687499999-31.74  319.9104687499999-33.62Q 321.9604687499999-35.5  324.7904687499999-36.55Q 327.6204687499999-37.6  330.9904687499999-37.6L 330.9904687499999-37.6Q 333.5304687499999-37.6  335.5804687499999-37.04Q 337.63046874999986-36.47  339.14046874999985-35.67Q 340.6604687499999-34.86  341.63046874999986-34.01Q 342.6104687499999-33.15  343.00046874999987-32.52L 343.00046874999987-32.52Q 340.3604687499999-33.98  337.5804687499999-34.86Q 334.8004687499999-35.74  330.9904687499999-35.74L 330.9904687499999-35.74Q 327.9104687499999-35.74  325.4504687499999-34.74Q 322.9804687499999-33.74  321.2204687499999-32.03Q 319.4704687499999-30.32  318.51046874999986-28.08Q 317.56046874999987-25.83  317.56046874999987-23.34L 317.56046874999987-23.34Q 317.56046874999987-21  318.1004687499999-18.95Q 318.6404687499999-16.89  319.8304687499999-15.16Q 321.0304687499999-13.43  322.9604687499999-11.99Q 324.8904687499999-10.55  327.6204687499999-9.47L 327.6204687499999-9.47Q 324.5404687499999-10.01  322.2704687499999-11.3Q 320.00046874999987-12.6  318.51046874999986-14.45Q 317.0204687499999-16.31  316.2904687499999-18.63Q 315.56046874999987-20.95  315.56046874999987-23.54ZM 353.7904687499999 3.42L 375.3704687499999 3.42L 375.3704687499999-4.59L 377.3304687499999-4.59L 377.3304687499999 5.27L 353.7904687499999 5.27L 353.7904687499999 3.42ZM 307.8904687499999-2.1L 307.8904687499999-2.1Q 309.9004687499999-0.49  312.44046874999987 0.81Q 314.9704687499999 2.1  317.8604687499999 3Q 320.7404687499999 3.91  323.8404687499999 4.39Q 326.94046874999987 4.88  330.06046874999987 4.88L 330.06046874999987 4.88Q 335.4804687499999 4.88  340.19046874999987 3.54Q 344.9104687499999 2.2  348.5704687499999-0.2L 348.5704687499999-0.2L 348.5704687499999 2.05Q 344.9104687499999 4.25  340.1004687499999 5.49Q 335.2904687499999 6.74  330.1104687499999 6.74L 330.1104687499999 6.74Q 326.5504687499999 6.74  323.13046874999986 6.18Q 319.7104687499999 5.62  316.7804687499999 4.49Q 313.8504687499999 3.37  311.56046874999987 1.71Q 309.26046874999986 0.05  307.8904687499999-2.1ZM 391.51164062499976 0L 391.51164062499976-7.32L 402.25164062499977-7.32L 402.25164062499977-38.82L 391.51164062499976-38.82L 391.51164062499976-47.12L 412.75164062499977-47.12L 412.75164062499977-38.96Q 414.26164062499976-40.92  416.39164062499975-42.68Q 418.51164062499976-44.43  421.20164062499975-45.75Q 423.88164062499976-47.07  427.06164062499977-47.83Q 430.2316406249998-48.58  433.84164062499974-48.58L 433.84164062499974-48.58Q 434.9216406249998-48.58  436.5316406249998-48.51Q 438.14164062499975-48.44  439.6116406249998-48.19L 439.6116406249998-48.19L 439.6116406249998-38.62Q 437.9016406249998-39.01  436.2416406249998-39.16Q 434.58164062499975-39.31  433.01164062499976-39.31L 433.01164062499976-39.31Q 429.1116406249998-39.31  425.62164062499977-38.06Q 422.13164062499976-36.82  419.39164062499975-34.45Q 416.6616406249998-32.08  414.9016406249998-28.66Q 413.14164062499975-25.24  412.75164062499977-20.85L 412.75164062499977-20.85L 412.75164062499977-7.32L 430.33164062499975-7.32L 430.33164062499975 0L 391.51164062499976 0ZM 416.1716406249998-10.25L 416.1716406249998-16.46Q 416.1716406249998-21.04  417.34164062499974-24.66Q 418.51164062499976-28.27  420.6816406249998-30.76Q 422.8616406249998-33.25  425.9816406249998-34.57Q 429.1116406249998-35.89  433.01164062499976-35.89L 433.01164062499976-35.89Q 433.84164062499974-35.89  435.1116406249998-35.77Q 436.38164062499976-35.64  437.7716406249998-35.4Q 439.1716406249998-35.16  440.58164062499975-34.79Q 442.00164062499977-34.42  443.12164062499977-33.94L 443.12164062499977-33.94L 443.12164062499977-45.46L 445.07164062499976-45.46L 445.07164062499976-31.49Q 443.71164062499975-32.08  442.12164062499977-32.54Q 440.5316406249998-33.01  438.9016406249998-33.35Q 437.26164062499976-33.69  435.75164062499977-33.86Q 434.2316406249998-34.03  433.01164062499976-34.03L 433.01164062499976-34.03Q 429.45164062499975-34.03  426.69164062499976-32.86Q 423.9316406249998-31.69  422.0316406249998-29.49Q 420.12164062499977-27.29  419.12164062499977-24.12Q 418.12164062499977-20.95  418.12164062499977-16.94L 418.12164062499977-16.94L 418.12164062499977-10.25L 416.1716406249998-10.25ZM 394.44164062499976-33.54L 394.44164062499976-35.4L 400.20164062499975-35.4L 400.20164062499975-33.54L 394.44164062499976-33.54ZM 394.44164062499976 3.42L 433.84164062499974 3.42L 433.84164062499974-4.59L 435.8016406249998-4.59L 435.8016406249998 5.27L 394.44164062499976 5.27L 394.44164062499976 3.42ZM 455.1141406249999-22.9L 455.1141406249999-22.9Q 455.1141406249999-27.44  457.01414062499987-31.86Q 458.9141406249999-36.28  462.6541406249999-39.77Q 466.3841406249999-43.26  471.9041406249999-45.43Q 477.4241406249999-47.61  484.6041406249999-47.61L 484.6041406249999-47.61Q 486.89414062499986-47.61  489.5041406249999-47.27Q 492.1241406249999-46.92  494.7341406249999-46.14Q 497.3441406249999-45.36  499.8341406249999-44.07Q 502.32414062499987-42.77  504.3741406249999-40.92L 504.3741406249999-40.92L 504.3741406249999-60.3L 493.6341406249999-60.3L 493.6341406249999-68.12L 514.8741406249999-68.12L 514.8741406249999-7.32L 523.1741406249998-7.32L 523.1741406249998 0L 504.3741406249999 0L 504.3741406249999-6.2Q 500.5641406249999-2.49  495.1941406249999-0.51Q 489.82414062499987 1.46  483.52414062499986 1.46L 483.52414062499986 1.46Q 477.52414062499986 1.46  472.3441406249999-0.12Q 467.1741406249999-1.71  463.33414062499986-4.79Q 459.5041406249999-7.86  457.3041406249999-12.4Q 455.1141406249999-16.94  455.1141406249999-22.9ZM 518.3941406249999-10.25L 518.3941406249999-65.63L 520.3441406249999-65.63L 520.3441406249999-10.25L 518.3941406249999-10.25ZM 496.5641406249999-55.03L 496.5641406249999-56.88L 502.32414062499987-56.88L 502.32414062499987-55.03L 496.5641406249999-55.03ZM 465.70414062499987-23.29L 465.70414062499987-23.29Q 465.70414062499987-19.34  466.9941406249999-16.16Q 468.2941406249999-12.99  470.7141406249999-10.74Q 473.1241406249999-8.5  476.57414062499987-7.28Q 480.01414062499987-6.05  484.3541406249999-6.05L 484.3541406249999-6.05Q 486.65414062499985-6.05  489.02414062499986-6.52Q 491.3841406249999-6.98  493.6141406249999-7.93Q 495.8341406249999-8.89  497.8141406249999-10.33Q 499.7841406249999-11.77  501.2241406249999-13.75Q 502.6641406249999-15.72  503.52414062499986-18.26Q 504.3741406249999-20.8  504.3741406249999-23.93L 504.3741406249999-23.93Q 504.3741406249999-27.39  502.76414062499987-30.35Q 501.15414062499985-33.3  498.4441406249999-35.45Q 495.7341406249999-37.6  492.1241406249999-38.82Q 488.5041406249999-40.04  484.5041406249999-40.04L 484.5041406249999-40.04Q 480.5941406249999-40.04  477.1841406249999-38.82Q 473.76414062499987-37.6  471.1941406249999-35.4Q 468.6341406249999-33.2  467.1741406249999-30.1Q 465.70414062499987-27  465.70414062499987-23.29ZM 469.1241406249999-23.29L 469.1241406249999-23.29Q 469.1241406249999-26.07  470.2241406249999-28.47Q 471.32414062499987-30.86  473.32414062499987-32.67Q 475.32414062499987-34.47  478.1841406249999-35.5Q 481.0341406249999-36.52  484.5041406249999-36.52L 484.5041406249999-36.52Q 489.4841406249999-36.52  492.90414062499985-35.06Q 496.32414062499987-33.59  497.5441406249999-31.4L 497.5441406249999-31.4Q 494.90414062499985-33.11  491.6041406249999-33.89Q 488.3141406249999-34.67  484.5041406249999-34.67L 484.5041406249999-34.67Q 481.4241406249999-34.67  478.9641406249999-33.76Q 476.4941406249999-32.86  474.76414062499987-31.3Q 473.0341406249999-29.74  472.07414062499987-27.61Q 471.1241406249999-25.49  471.1241406249999-23.1L 471.1241406249999-23.1Q 471.1241406249999-13.87  481.52414062499986-9.52L 481.52414062499986-9.52Q 478.5441406249999-9.86  476.2541406249999-11.08Q 473.95414062499987-12.3  472.3741406249999-14.14Q 470.7841406249999-15.97  469.95414062499987-18.31Q 469.1241406249999-20.65  469.1241406249999-23.29ZM 507.3041406249999 3.42L 526.6941406249999 3.42L 526.6941406249999-4.59L 528.6441406249999-4.59L 528.6441406249999 5.27L 507.3041406249999 5.27L 507.3041406249999 3.42ZM 461.4041406249999-2.1L 461.4041406249999-2.1Q 463.4141406249999-0.49  465.95414062499987 0.81Q 468.4841406249999 2.1  471.3741406249999 3Q 474.2541406249999 3.91  477.3541406249999 4.39Q 480.45414062499987 4.88  483.57414062499987 4.88L 483.57414062499987 4.88Q 488.9941406249999 4.88  493.70414062499987 3.54Q 498.4241406249999 2.2  502.0841406249999-0.2L 502.0841406249999-0.2L 502.0841406249999 2.05Q 498.4241406249999 4.25  493.6141406249999 5.49Q 488.8041406249999 6.74  483.6241406249999 6.74L 483.6241406249999 6.74Q 475.7141406249999 6.74  470.1041406249999 4.52Q 464.4841406249999 2.29  461.4041406249999-2.1ZM 570.0007812499999-14.99L 579.6207812499999-18.65Q 581.2807812499999-12.45  585.9907812499999-9.52Q 590.7007812499999-6.59  598.1207812499999-6.59L 598.1207812499999-6.59Q 600.5207812499999-6.59  602.6207812499999-7.06Q 604.7207812499998-7.52  606.4007812499999-8.47Q 608.0907812499998-9.42  609.2807812499999-10.89Q 610.4807812499998-12.35  611.0607812499999-14.36L 611.0607812499999-14.36Q 611.5007812499999-16.02  611.7007812499999-18.65Q 611.8907812499999-21.29  611.8907812499999-25.68L 611.8907812499999-25.68L 611.8907812499999-52.98L 588.6007812499998-52.98L 588.6007812499998-60.79L 635.1807812499999-60.79L 635.1807812499999-52.98L 622.9807812499998-52.98L 622.9807812499998-25.29Q 622.9807812499998-20.9  622.6407812499999-17.7Q 622.2907812499999-14.5  621.61078125-12.45L 621.61078125-12.45Q 620.4407812499999-8.84  618.2907812499999-6.23Q 616.1407812499999-3.61  613.0907812499998-1.9Q 610.0407812499999-0.2  606.1607812499999 0.63Q 602.2707812499999 1.46  597.6807812499999 1.46L 597.6807812499999 1.46Q 591.4307812499999 1.46  586.8007812499999 0.39Q 582.1607812499999-0.68  578.8407812499998-2.78Q 575.5207812499999-4.88  573.3707812499999-7.96Q 571.2207812499998-11.04  570.0007812499999-14.99L 570.0007812499999-14.99ZM 575.7107812499999-1.12L 575.7107812499999-1.12Q 580.3007812499999 1.81  585.6207812499999 3.22Q 590.9507812499999 4.64  597.7807812499999 4.64L 597.7807812499999 4.64Q 602.6207812499999 4.64  606.9907812499998 3.71Q 611.36078125 2.78  614.9207812499999 0.81Q 618.4907812499998-1.17  621.1207812499999-4.27Q 623.7607812499999-7.37  625.1807812499999-11.72L 625.1807812499999-11.72Q 625.8107812499999-13.92  626.1507812499999-17.11Q 626.4907812499998-20.31  626.4907812499998-25.29L 626.4907812499998-25.29L 626.4907812499998-49.56L 638.7007812499999-49.56L 638.7007812499999-58.35L 640.6507812499999-58.35L 640.6507812499999-47.71L 628.4507812499999-47.71L 628.4507812499999-25.15Q 628.4507812499999-20.02  628.1007812499998-16.67Q 627.7607812499999-13.33  626.9807812499998-10.84L 626.9807812499998-10.84Q 625.5207812499999-6.49  622.7807812499999-3.22Q 620.0507812499999 0.05  616.3407812499998 2.2Q 612.6307812499999 4.35  608.0907812499998 5.42Q 603.5407812499999 6.49  598.4707812499998 6.49L 598.4707812499998 6.49Q 594.4107812499999 6.49  591.0707812499999 6.03Q 587.7207812499998 5.57  584.9407812499999 4.64Q 582.1607812499999 3.71  579.8907812499999 2.27Q 577.6207812499999 0.83  575.7107812499999-1.12ZM 591.5307812499999-47.71L 591.5307812499999-49.56L 609.8407812499998-49.56L 609.8407812499998-47.71L 591.5307812499999-47.71ZM 584.2607812499999-16.55L 586.1107812499998-17.24Q 586.7507812499999-15.87  587.7207812499998-14.72Q 588.7007812499999-13.57  589.8507812499998-12.65Q 591.0007812499999-11.72  592.2207812499998-11.06Q 593.4407812499999-10.4  594.6107812499998-10.01L 594.6107812499998-10.01Q 590.7507812499999-10.45  588.1607812499999-12.18Q 585.5807812499999-13.92  584.2607812499999-16.55L 584.2607812499999-16.55ZM 652.3964062499998 0L 652.3964062499998-7.32L 663.1364062499998-7.32L 663.1364062499998-38.82L 652.3964062499998-38.82L 652.3964062499998-47.12L 673.6364062499998-47.12L 673.6364062499998-38.96Q 675.1464062499998-40.92  677.2764062499998-42.68Q 679.3964062499998-44.43  682.0864062499998-45.75Q 684.7664062499998-47.07  687.9464062499998-47.83Q 691.1164062499997-48.58  694.7264062499997-48.58L 694.7264062499997-48.58Q 695.8064062499998-48.58  697.4164062499998-48.51Q 699.0264062499998-48.44  700.4964062499997-48.19L 700.4964062499997-48.19L 700.4964062499997-38.62Q 698.7864062499998-39.01  697.1264062499997-39.16Q 695.4664062499997-39.31  693.8964062499998-39.31L 693.8964062499998-39.31Q 689.9964062499997-39.31  686.5064062499998-38.06Q 683.0164062499998-36.82  680.2764062499998-34.45Q 677.5464062499998-32.08  675.7864062499998-28.66Q 674.0264062499998-25.24  673.6364062499998-20.85L 673.6364062499998-20.85L 673.6364062499998-7.32L 691.2164062499997-7.32L 691.2164062499997 0L 652.3964062499998 0ZM 677.0564062499998-10.25L 677.0564062499998-16.46Q 677.0564062499998-21.04  678.2264062499997-24.66Q 679.3964062499998-28.27  681.5664062499998-30.76Q 683.7464062499997-33.25  686.8664062499997-34.57Q 689.9964062499997-35.89  693.8964062499998-35.89L 693.8964062499998-35.89Q 694.7264062499997-35.89  695.9964062499997-35.77Q 697.2664062499998-35.64  698.6564062499998-35.4Q 700.0564062499998-35.16  701.4664062499997-34.79Q 702.8864062499998-34.42  704.0064062499998-33.94L 704.0064062499998-33.94L 704.0064062499998-45.46L 705.9564062499998-45.46L 705.9564062499998-31.49Q 704.5964062499997-32.08  703.0064062499998-32.54Q 701.4164062499998-33.01  699.7864062499998-33.35Q 698.1464062499998-33.69  696.6364062499998-33.86Q 695.1164062499997-34.03  693.8964062499998-34.03L 693.8964062499998-34.03Q 690.3364062499998-34.03  687.5764062499998-32.86Q 684.8164062499998-31.69  682.9164062499998-29.49Q 681.0064062499998-27.29  680.0064062499998-24.12Q 679.0064062499998-20.95  679.0064062499998-16.94L 679.0064062499998-16.94L 679.0064062499998-10.25L 677.0564062499998-10.25ZM 655.3264062499998-33.54L 655.3264062499998-35.4L 661.0864062499998-35.4L 661.0864062499998-33.54L 655.3264062499998-33.54ZM 655.3264062499998 3.42L 694.7264062499997 3.42L 694.7264062499997-4.59L 696.6864062499998-4.59L 696.6864062499998 5.27L 655.3264062499998 5.27L 655.3264062499998 3.42ZM 717.9489062499999 0L 717.9489062499999-12.7L 733.8189062499999-12.7L 733.8189062499999 0L 717.9489062499999 0ZM 720.8789062499999 3.42L 737.3289062499999 3.42L 737.3289062499999-9.96L 739.2889062499999-9.96L 739.2889062499999 5.27L 720.8789062499999 5.27L 720.8789062499999 3.42ZM 783.7628124999998-30.37L 783.7628124999998-30.37Q 783.7628124999998-34.42  784.8128124999997-38.38Q 785.8628124999998-42.33  787.9928124999998-45.9Q 790.1128124999998-49.46  793.2828124999997-52.51Q 796.4628124999998-55.57  800.7128124999998-57.79Q 804.9528124999998-60.01  810.3028124999997-61.25Q 815.6528124999998-62.5  822.0428124999997-62.5L 822.0428124999997-62.5Q 825.4628124999998-62.5  828.8328124999998-61.96Q 832.2028124999998-61.43  835.3028124999997-60.47Q 838.4028124999998-59.52  841.1628124999997-58.15Q 843.9228124999997-56.79  846.0728124999998-55.13L 846.0728124999998-55.13L 846.0728124999998-60.79L 857.1528124999998-60.79L 857.1528124999998-43.21L 846.0728124999998-43.21Q 844.5128124999998-45.7  841.9728124999998-47.83Q 839.4328124999997-49.95  836.2028124999998-51.46Q 832.9828124999998-52.98  829.1728124999997-53.83Q 825.3628124999998-54.69  821.2628124999998-54.69L 821.2628124999998-54.69Q 814.8228124999998-54.69  810.0628124999997-52.64Q 805.3028124999997-50.59  802.1728124999997-47.19Q 799.0528124999997-43.8  797.5128124999998-39.43Q 795.9728124999998-35.06  795.9728124999998-30.37L 795.9728124999998-30.37Q 795.9728124999998-25.1  797.9228124999997-20.68Q 799.8828124999998-16.26  803.3728124999998-13.09Q 806.8628124999998-9.91  811.6928124999997-8.13Q 816.5328124999997-6.35  822.3428124999998-6.35L 822.3428124999998-6.35Q 827.6128124999998-6.35  831.9128124999997-7.37Q 836.2028124999998-8.4  839.5728124999998-10.33Q 842.9428124999997-12.26  845.4128124999997-15.04Q 847.8728124999998-17.82  849.5328124999997-21.29L 849.5328124999997-21.29L 857.0528124999997-16.21Q 852.5128124999998-7.52  843.8028124999997-3.03Q 835.0828124999998 1.46  821.9028124999998 1.46L 821.9028124999998 1.46Q 813.6028124999998 1.46  806.6128124999998-0.98Q 799.6328124999998-3.42  794.5528124999997-7.71Q 789.4828124999998-12.01  786.6228124999998-17.82Q 783.7628124999998-23.63  783.7628124999998-30.37ZM 849.0028124999998-37.94L 849.0028124999998-39.79L 860.6728124999997-39.79L 860.6728124999997-58.3L 862.6228124999998-58.3L 862.6228124999998-37.94L 849.0028124999998-37.94ZM 799.4928124999998-30.42L 799.4928124999998-30.42Q 799.4928124999998-34.96  801.1028124999998-38.77Q 802.7128124999998-42.58  805.6128124999998-45.36Q 808.5228124999998-48.14  812.5528124999997-49.71Q 816.5828124999998-51.27  821.4628124999998-51.27L 821.4628124999998-51.27Q 827.8528124999998-51.27  832.7128124999998-49.29Q 837.5728124999998-47.31  840.5028124999998-43.65L 840.5028124999998-43.65Q 836.2528124999998-46.63  831.4928124999998-48.02Q 826.7328124999998-49.41  821.2628124999998-49.41L 821.2628124999998-49.41Q 816.6228124999998-49.41  812.9428124999997-47.9Q 809.2528124999998-46.39  806.6928124999997-43.82Q 804.1228124999998-41.26  802.7828124999997-37.87Q 801.4428124999997-34.47  801.4428124999997-30.71L 801.4428124999997-30.71Q 801.4428124999997-27.05  802.4428124999997-23.9Q 803.4428124999997-20.75  805.6128124999998-18.12Q 807.7928124999997-15.48  811.2528124999998-13.33Q 814.7228124999998-11.18  819.7028124999998-9.57L 819.7028124999998-9.57Q 815.1128124999998-10.21  811.3828124999998-11.96Q 807.6428124999998-13.72  805.0028124999998-16.41Q 802.3728124999998-19.09  800.9328124999997-22.63Q 799.4928124999998-26.17  799.4928124999998-30.42ZM 795.6828124999997-2.34L 795.6828124999997-2.34Q 798.0228124999998-0.73  801.1228124999998 0.61Q 804.2228124999998 1.95  807.6628124999997 2.91Q 811.1128124999998 3.86  814.7928124999997 4.37Q 818.4828124999998 4.88  822.0028124999998 4.88L 822.0028124999998 4.88Q 828.2528124999998 4.88  833.8828124999998 3.81Q 839.5228124999998 2.73  844.2428124999998 0.66Q 848.9528124999997-1.42  852.5628124999998-4.47Q 856.1728124999997-7.52  858.3728124999998-11.43L 858.3728124999998-11.43L 860.0828124999998-10.4Q 857.8428124999998-6.35  854.1228124999998-3.15Q 850.4128124999997 0.05  845.5128124999998 2.25Q 840.6028124999998 4.44  834.6228124999998 5.59Q 828.6428124999998 6.74  821.9028124999998 6.74L 821.9028124999998 6.74Q 818.0428124999997 6.74  814.2328124999998 6.18Q 810.4228124999997 5.62  806.9828124999998 4.47Q 803.5428124999997 3.32  800.6328124999998 1.64Q 797.7328124999998-0.05  795.6828124999997-2.34ZM 940.3340624999995 0L 940.3340624999995-7.32L 951.0740624999995-7.32L 951.0740624999995-38.82L 940.3340624999995-38.82L 940.3340624999995-47.12L 961.5740624999995-47.12L 961.5740624999995-39.75Q 963.0840624999995-41.6  965.2040624999995-43.21Q 967.3340624999995-44.82  969.9640624999995-46.02Q 972.6040624999996-47.22  975.6840624999995-47.9Q 978.7540624999996-48.58  982.1240624999996-48.58L 982.1240624999996-48.58Q 987.2040624999995-48.58  991.3540624999996-47.14Q 995.5040624999996-45.7  998.4340624999995-42.7Q 1001.3640624999996-39.7  1002.9540624999995-35.13Q 1004.5440624999995-30.57  1004.5440624999995-24.32L 1004.5440624999995-24.32L 1004.5440624999995-7.32L 1015.2840624999995-7.32L 1015.2840624999995 0L 985.7440624999996 0L 985.7440624999996-7.32L 994.0440624999995-7.32L 994.0440624999995-20.17Q 994.0440624999995-24.12  993.6740624999995-27.22Q 993.3040624999995-30.32  992.6240624999996-32.08L 992.6240624999996-32.08Q 991.7440624999996-34.33  990.4040624999996-35.89Q 989.0640624999995-37.45  987.3740624999996-38.43Q 985.6940624999995-39.4  983.6940624999995-39.84Q 981.6840624999995-40.28  979.4440624999995-40.28L 979.4440624999995-40.28Q 977.0440624999995-40.28  974.4840624999996-39.4Q 971.9240624999995-38.53  969.5040624999996-36.94Q 967.0840624999995-35.35  965.0140624999996-33.2Q 962.9340624999995-31.05  961.5740624999995-28.56L 961.5740624999995-28.56L 961.5740624999995-7.32L 969.8740624999996-7.32L 969.8740624999996 0L 940.3340624999995 0ZM 1008.0540624999995-10.25L 1008.0540624999995-23.97Q 1008.0540624999995-28.27  1007.3940624999996-31.96Q 1006.7340624999995-35.64  1005.4140624999995-38.6Q 1004.1040624999996-41.55  1002.1740624999995-43.7Q 1000.2440624999996-45.85  997.7040624999995-47.12L 997.7040624999995-47.12Q 1001.0240624999996-46.29  1003.3640624999996-44.31Q 1005.7140624999995-42.33  1007.1740624999995-39.31Q 1008.6440624999996-36.28  1009.3240624999995-32.32Q 1010.0040624999996-28.37  1010.0040624999996-23.63L 1010.0040624999996-23.63L 1010.0040624999996-10.25L 1008.0540624999995-10.25ZM 965.0840624999995-10.25L 965.0840624999995-27.34Q 966.3040624999995-29.49  967.9940624999996-31.25Q 969.6740624999995-33.01  971.6540624999996-34.25Q 973.6340624999996-35.5  975.8040624999995-36.18Q 977.9740624999995-36.87  980.1240624999996-36.87L 980.1240624999996-36.87Q 983.4940624999996-36.87  985.5940624999995-35.6Q 987.6940624999995-34.33  988.6740624999995-32.37L 988.6740624999995-32.37Q 987.1540624999996-33.5  985.1340624999996-34.28Q 983.1040624999996-35.06  980.0240624999996-35.06L 980.0240624999996-35.06Q 978.1240624999996-35.06  976.1740624999995-34.35Q 974.2140624999995-33.64  972.4540624999995-32.47Q 970.7040624999995-31.3  969.2840624999995-29.79Q 967.8740624999996-28.27  967.0440624999995-26.71L 967.0440624999995-26.71L 967.0440624999995-10.25L 965.0840624999995-10.25ZM 943.2640624999996-33.54L 943.2640624999996-35.4L 949.0240624999996-35.4L 949.0240624999996-33.54L 943.2640624999996-33.54ZM 988.6740624999995 3.42L 1018.7940624999995 3.42L 1018.7940624999995-4.59L 1020.7540624999996-4.59L 1020.7540624999996 5.27L 988.6740624999995 5.27L 988.6740624999995 3.42ZM 943.2640624999996 3.42L 973.3840624999996 3.42L 973.3840624999996-4.59L 975.3440624999995-4.59L 975.3440624999995 5.27L 943.2640624999996 5.27L 943.2640624999996 3.42ZM 1031.3154687499996 0L 1031.3154687499996-13.43L 1041.3754687499995-13.43Q 1042.6954687499995-11.43  1045.1354687499995-9.91Q 1047.5754687499996-8.4  1050.7254687499994-7.42Q 1053.8754687499995-6.45  1057.6354687499995-5.96Q 1061.3954687499995-5.47  1065.3554687499995-5.47L 1065.3554687499995-5.47Q 1068.6254687499995-5.47  1070.9154687499995-5.96Q 1073.2154687499994-6.45  1074.6354687499995-7.32Q 1076.0454687499996-8.2  1076.6854687499995-9.38Q 1077.3154687499996-10.55  1077.3154687499996-11.96L 1077.3154687499996-11.96Q 1077.3154687499996-14.94  1072.5554687499996-17.07Q 1067.7954687499996-19.19  1057.4954687499996-20.31L 1057.4954687499996-20.31Q 1050.6554687499995-21.04  1046.0654687499996-22.34Q 1041.4754687499994-23.63  1038.6654687499995-25.49Q 1035.8654687499995-27.34  1034.6654687499995-29.74Q 1033.4654687499994-32.13  1033.4654687499994-35.01L 1033.4654687499994-35.01Q 1033.4654687499994-37.5  1035.0354687499996-39.94Q 1036.5954687499996-42.38  1039.7954687499996-44.31Q 1042.9854687499997-46.24  1047.7954687499996-47.41Q 1052.6054687499995-48.58  1059.1054687499995-48.58L 1059.1054687499995-48.58Q 1061.2054687499995-48.58  1063.3954687499995-48.29Q 1065.5954687499996-48  1067.6954687499995-47.44Q 1069.7954687499996-46.88  1071.7054687499995-46.09Q 1073.6054687499995-45.31  1075.1154687499995-44.34L 1075.1154687499995-44.34L 1075.1154687499995-47.07L 1085.6154687499995-47.07L 1085.6154687499995-33.89L 1075.1154687499995-33.89Q 1074.5854687499996-35.4  1072.8754687499995-36.77Q 1071.1654687499995-38.13  1068.8154687499996-39.16Q 1066.4754687499994-40.19  1063.8354687499996-40.8Q 1061.2054687499995-41.41  1058.8554687499995-41.41L 1058.8554687499995-41.41Q 1055.7854687499996-41.41  1053.0454687499996-40.97Q 1050.3154687499996-40.53  1048.3154687499996-39.72Q 1046.3154687499996-38.92  1045.1354687499995-37.79Q 1043.9654687499994-36.67  1043.9654687499994-35.3L 1043.9654687499994-35.3Q 1043.9654687499994-34.03  1044.8654687499995-33.01Q 1045.7754687499996-31.98  1047.8954687499995-31.1Q 1050.0254687499996-30.22  1053.5654687499996-29.47Q 1057.1054687499995-28.71  1062.3754687499995-28.08L 1062.3754687499995-28.08Q 1069.4054687499995-27.2  1074.2354687499997-25.83Q 1079.0754687499996-24.46  1082.1054687499995-22.49Q 1085.1254687499995-20.51  1086.4754687499994-17.87Q 1087.8154687499996-15.23  1087.8154687499996-11.82L 1087.8154687499996-11.82Q 1087.8154687499996-9.33  1086.3054687499996-6.96Q 1084.7854687499996-4.59  1081.8854687499995-2.71Q 1078.9754687499994-0.83  1074.7554687499996 0.32Q 1070.5254687499996 1.46  1065.0654687499996 1.46L 1065.0654687499996 1.46Q 1061.5454687499996 1.46  1058.4654687499994 1.2Q 1055.3954687499995 0.93  1052.5654687499996 0.29Q 1049.7254687499994-0.34  1047.0954687499996-1.32Q 1044.4554687499995-2.29  1041.8154687499996-3.71L 1041.8154687499996-3.71L 1041.8154687499996 0L 1031.3154687499996 0ZM 1077.5154687499996-28.61L 1077.5154687499996-30.47L 1089.1354687499995-30.47L 1089.1354687499995-45.02L 1091.0854687499996-45.02L 1091.0854687499996-28.61L 1077.5154687499996-28.61ZM 1047.5354687499996-35.3L 1047.5354687499996-35.3Q 1047.6754687499995-35.94  1048.7054687499995-36.47Q 1049.7254687499994-37.01  1051.3154687499996-37.43Q 1052.9054687499995-37.84  1054.8354687499996-38.09Q 1056.7554687499996-38.33  1058.7154687499994-38.33L 1058.7154687499994-38.33Q 1060.3754687499995-38.33  1062.1554687499995-38.09Q 1063.9354687499995-37.84  1065.5254687499996-37.4Q 1067.1154687499995-36.96  1068.4054687499995-36.3Q 1069.6954687499995-35.64  1070.4354687499995-34.81L 1070.4354687499995-34.81Q 1069.3054687499996-35.3  1067.7454687499996-35.62Q 1066.1854687499995-35.94  1064.5454687499996-36.13Q 1062.9154687499995-36.33  1061.3454687499996-36.43Q 1059.7854687499996-36.52  1058.7154687499994-36.52L 1058.7154687499994-36.52Q 1054.7554687499996-36.52  1051.8554687499995-36.13Q 1048.9454687499995-35.74  1047.5354687499996-35.3ZM 1034.1554687499995-25.63L 1034.1554687499995-25.63Q 1035.5154687499996-23.88  1037.4254687499995-22.51Q 1039.3254687499996-21.14  1042.0154687499996-20.07Q 1044.6954687499995-18.99  1048.2654687499996-18.24Q 1051.8254687499996-17.48  1056.4654687499994-16.94L 1056.4654687499994-16.94Q 1060.7154687499994-16.46  1063.8354687499996-15.89Q 1066.9654687499994-15.33  1069.0654687499996-14.65Q 1071.1654687499995-13.96  1072.3354687499996-13.11Q 1073.5054687499996-12.26  1073.8454687499996-11.18L 1073.8454687499996-11.18Q 1072.8254687499996-11.87  1071.5054687499996-12.38Q 1070.1854687499995-12.89  1068.1354687499995-13.33Q 1066.0854687499996-13.77  1063.0854687499996-14.21Q 1060.0754687499996-14.65  1055.6354687499995-15.19L 1055.6354687499995-15.19Q 1046.4554687499995-16.26  1041.1354687499995-18.68Q 1035.8154687499996-21.09  1034.1554687499995-25.63ZM 1033.7154687499994 3.42L 1045.3354687499996 3.42L 1045.3354687499996 1.37Q 1046.7054687499995 2  1048.8054687499996 2.61Q 1050.8954687499995 3.22  1053.5154687499996 3.74Q 1056.1254687499995 4.25  1059.0554687499996 4.57Q 1061.9854687499997 4.88  1065.0154687499996 4.88L 1065.0154687499996 4.88Q 1071.0654687499996 4.88  1075.9454687499995 3.54Q 1080.8354687499996 2.2  1084.2454687499996-0.07Q 1087.6654687499995-2.34  1089.4954687499996-5.35Q 1091.3254687499996-8.35  1091.3254687499996-11.67L 1091.3254687499996-11.67Q 1091.3254687499996-12.99  1091.1854687499995-14.11Q 1091.0354687499996-15.23  1090.6754687499995-16.26Q 1090.3054687499996-17.29  1089.6954687499995-18.31Q 1089.0854687499996-19.34  1088.1554687499995-20.46L 1088.1554687499995-20.46Q 1093.2854687499996-17.43  1093.2854687499996-11.67L 1093.2854687499996-11.67Q 1093.2854687499996-7.76  1091.2854687499996-4.39Q 1089.2754687499996-1.03  1085.5954687499996 1.44Q 1081.9054687499995 3.91  1076.6854687499995 5.32Q 1071.4554687499995 6.74  1064.9654687499994 6.74L 1064.9654687499994 6.74Q 1062.5654687499996 6.74  1060.1254687499995 6.52Q 1057.6854687499995 6.3  1055.3954687499995 5.91Q 1053.0954687499996 5.52  1051.0454687499996 4.98Q 1048.9954687499996 4.44  1047.3854687499995 3.76L 1047.3854687499995 3.76L 1047.3854687499995 5.37L 1033.7154687499994 5.37L 1033.7154687499994 3.42ZM 1114.8890624999992-17.48L 1114.8890624999992-38.82L 1104.1490624999992-38.82L 1104.1490624999992-47.12L 1114.8890624999992-47.12L 1114.8890624999992-56.98L 1125.3890624999992-61.38L 1125.3890624999992-47.12L 1149.6590624999992-47.12L 1149.6590624999992-38.82L 1125.3890624999992-38.82L 1125.3890624999992-15.53Q 1125.3890624999992-11.87  1127.6790624999994-10.08Q 1129.9790624999994-8.3  1133.9290624999994-8.3L 1133.9290624999994-8.3L 1147.6990624999994-8.3L 1147.6990624999994 0L 1133.9290624999994 0Q 1129.9790624999994 0  1126.5090624999993-0.85Q 1123.0390624999993-1.71  1120.4590624999994-3.74Q 1117.8690624999992-5.76  1116.3790624999992-9.11Q 1114.8890624999992-12.45  1114.8890624999992-17.48L 1114.8890624999992-17.48ZM 1128.8990624999992-50.05L 1128.8990624999992-58.69L 1130.8590624999993-59.57L 1130.8590624999993-50.05L 1128.8990624999992-50.05ZM 1128.8090624999993-13.53L 1128.8090624999993-35.94L 1153.1690624999994-35.94L 1153.1690624999994-44.92L 1155.1190624999992-44.92L 1155.1190624999992-34.08L 1130.7590624999993-34.08L 1130.7590624999993-11.57Q 1129.0990624999993-12.01  1128.8090624999993-13.53L 1128.8090624999993-13.53ZM 1107.0790624999993-33.54L 1107.0790624999993-35.4L 1112.9390624999994-35.4L 1112.9390624999994-33.54L 1107.0790624999993-33.54ZM 1114.5990624999993-4.2L 1114.5990624999993-4.2Q 1116.1590624999992-2  1118.0890624999993-0.54Q 1120.0190624999993 0.93  1122.4090624999992 1.81Q 1124.7990624999993 2.69  1127.6290624999992 3.05Q 1130.4690624999994 3.42  1133.8290624999993 3.42L 1133.8290624999993 3.42L 1151.2190624999994 3.42L 1151.2190624999994-6.1L 1153.1690624999994-6.1L 1153.1690624999994 5.27L 1133.5890624999993 5.27Q 1129.8290624999993 5.27  1126.7490624999994 4.79Q 1123.6790624999994 4.3  1121.3090624999993 3.2Q 1118.9390624999994 2.1  1117.2590624999993 0.27Q 1115.5690624999993-1.56  1114.5990624999993-4.2ZM 1168.0370312499995 0L 1168.0370312499995-7.32L 1178.7770312499995-7.32L 1178.7770312499995-38.82L 1168.0370312499995-38.82L 1168.0370312499995-47.12L 1189.2770312499995-47.12L 1189.2770312499995-38.96Q 1190.7870312499995-40.92  1192.9170312499996-42.68Q 1195.0370312499995-44.43  1197.7270312499995-45.75Q 1200.4070312499996-47.07  1203.5870312499997-47.83Q 1206.7570312499995-48.58  1210.3670312499996-48.58L 1210.3670312499996-48.58Q 1211.4470312499996-48.58  1213.0570312499995-48.51Q 1214.6670312499996-48.44  1216.1370312499996-48.19L 1216.1370312499996-48.19L 1216.1370312499996-38.62Q 1214.4270312499996-39.01  1212.7670312499995-39.16Q 1211.1070312499996-39.31  1209.5370312499995-39.31L 1209.5370312499995-39.31Q 1205.6370312499996-39.31  1202.1470312499996-38.06Q 1198.6570312499996-36.82  1195.9170312499996-34.45Q 1193.1870312499996-32.08  1191.4270312499996-28.66Q 1189.6670312499996-25.24  1189.2770312499995-20.85L 1189.2770312499995-20.85L 1189.2770312499995-7.32L 1206.8570312499996-7.32L 1206.8570312499996 0L 1168.0370312499995 0ZM 1192.6970312499996-10.25L 1192.6970312499996-16.46Q 1192.6970312499996-21.04  1193.8670312499996-24.66Q 1195.0370312499995-28.27  1197.2070312499995-30.76Q 1199.3870312499996-33.25  1202.5070312499995-34.57Q 1205.6370312499996-35.89  1209.5370312499995-35.89L 1209.5370312499995-35.89Q 1210.3670312499996-35.89  1211.6370312499996-35.77Q 1212.9070312499996-35.64  1214.2970312499995-35.4Q 1215.6970312499996-35.16  1217.1070312499996-34.79Q 1218.5270312499995-34.42  1219.6470312499996-33.94L 1219.6470312499996-33.94L 1219.6470312499996-45.46L 1221.5970312499996-45.46L 1221.5970312499996-31.49Q 1220.2370312499995-32.08  1218.6470312499996-32.54Q 1217.0570312499995-33.01  1215.4270312499996-33.35Q 1213.7870312499995-33.69  1212.2770312499995-33.86Q 1210.7570312499995-34.03  1209.5370312499995-34.03L 1209.5370312499995-34.03Q 1205.9770312499995-34.03  1203.2170312499995-32.86Q 1200.4570312499995-31.69  1198.5570312499995-29.49Q 1196.6470312499996-27.29  1195.6470312499996-24.12Q 1194.6470312499996-20.95  1194.6470312499996-16.94L 1194.6470312499996-16.94L 1194.6470312499996-10.25L 1192.6970312499996-10.25ZM 1170.9670312499995-33.54L 1170.9670312499995-35.4L 1176.7270312499995-35.4L 1176.7270312499995-33.54L 1170.9670312499995-33.54ZM 1170.9670312499995 3.42L 1210.3670312499996 3.42L 1210.3670312499996-4.59L 1212.3270312499994-4.59L 1212.3270312499994 5.27L 1170.9670312499995 5.27L 1170.9670312499995 3.42ZM 1238.1795312499994-10.94L 1238.1795312499994-10.94Q 1237.1995312499994-13.43  1236.7395312499993-16.36Q 1236.2695312499993-19.29  1236.2695312499993-22.8L 1236.2695312499993-22.8L 1236.2695312499993-38.82L 1227.9695312499994-38.82L 1227.9695312499994-47.12L 1246.7695312499993-47.12L 1246.7695312499993-26.95Q 1246.7695312499993-23  1247.1395312499992-19.9Q 1247.4995312499993-16.8  1248.1895312499994-15.04L 1248.1895312499994-15.04Q 1249.0695312499993-12.79  1250.4795312499994-11.23Q 1251.8995312499994-9.67  1253.6795312499994-8.69Q 1255.4595312499994-7.71  1257.5395312499993-7.28Q 1259.6095312499992-6.84  1261.8595312499992-6.84L 1261.8595312499992-6.84Q 1264.2495312499993-6.84  1266.8195312499993-7.71Q 1269.3795312499992-8.59  1271.7695312499993-10.16Q 1274.1595312499994-11.72  1276.2395312499993-13.87Q 1278.3095312499993-16.02  1279.7295312499994-18.51L 1279.7295312499994-18.51L 1279.7295312499994-38.82L 1268.9895312499993-38.82L 1268.9895312499993-47.12L 1290.2295312499994-47.12L 1290.2295312499994-7.32L 1298.5295312499993-7.32L 1298.5295312499993 0L 1279.7295312499994 0L 1279.7295312499994-7.42Q 1278.1695312499994-5.52  1275.9495312499994-3.91Q 1273.7295312499994-2.29  1271.0195312499993-1.1Q 1268.3095312499993 0.1  1265.1795312499994 0.78Q 1262.0595312499993 1.46  1258.6895312499994 1.46L 1258.6895312499994 1.46Q 1251.4095312499994 1.46  1246.0595312499993-1.59Q 1240.7195312499994-4.64  1238.1795312499994-10.94ZM 1293.6495312499992-10.25L 1293.6495312499992-44.63L 1295.5995312499992-44.63L 1295.5995312499992-10.25L 1293.6495312499992-10.25ZM 1250.2895312499993-24.02L 1250.2895312499993-44.63L 1252.2395312499993-44.63L 1252.2395312499993-24.56Q 1252.2395312499993-20.75  1252.9695312499994-18.21Q 1253.7095312499994-15.67  1254.9295312499994-14.06Q 1256.1495312499994-12.45  1257.7095312499994-11.57Q 1259.2695312499993-10.69  1260.9295312499994-10.21L 1260.9295312499994-10.21Q 1255.8095312499993-10.25  1253.0495312499993-13.6Q 1250.2895312499993-16.94  1250.2895312499993-24.02L 1250.2895312499993-24.02ZM 1271.9195312499994-33.54L 1271.9195312499994-35.4L 1277.6795312499994-35.4L 1277.6795312499994-33.54L 1271.9195312499994-33.54ZM 1230.8995312499994-33.54L 1230.8995312499994-35.4L 1234.2195312499994-35.4L 1234.2195312499994-33.54L 1230.8995312499994-33.54ZM 1282.6595312499994 3.42L 1302.0495312499993 3.42L 1302.0495312499993-4.59L 1303.9995312499993-4.59L 1303.9995312499993 5.27L 1282.6595312499994 5.27L 1282.6595312499994 3.42ZM 1238.7195312499994-3.27L 1238.7195312499994-3.27Q 1242.5195312499993 0.83  1247.3095312499993 2.86Q 1252.0895312499993 4.88  1258.7295312499994 4.88L 1258.7295312499994 4.88Q 1264.6395312499992 4.88  1269.3095312499993 3.34Q 1273.9695312499994 1.81  1277.7795312499993-0.83L 1277.7795312499993-0.83L 1277.7795312499993 1.42Q 1273.4795312499994 4.2  1268.8395312499993 5.47Q 1264.1995312499994 6.74  1258.7795312499993 6.74L 1258.7795312499993 6.74Q 1251.4095312499994 6.74  1246.2295312499994 4.17Q 1241.0595312499993 1.61  1238.7195312499994-3.27ZM 1315.500859374999-22.66L 1315.500859374999-22.66Q 1315.500859374999-27.83  1317.720859374999-32.52Q 1319.940859374999-37.21  1323.970859374999-40.77Q 1328.000859374999-44.34  1333.680859374999-46.46Q 1339.370859374999-48.58  1346.2608593749992-48.58L 1346.2608593749992-48.58Q 1352.0208593749992-48.58  1356.680859374999-47.05Q 1361.3408593749991-45.51  1365.3008593749992-42.72L 1365.3008593749992-42.72L 1365.3008593749992-47.07L 1375.8008593749992-47.07L 1375.8008593749992-31.93L 1365.7908593749992-31.93Q 1364.420859374999-33.64  1362.420859374999-35.28Q 1360.420859374999-36.91  1357.900859374999-38.18Q 1355.390859374999-39.45  1352.410859374999-40.23Q 1349.430859374999-41.02  1346.110859374999-41.02L 1346.110859374999-41.02Q 1341.860859374999-41.02  1338.200859374999-39.65Q 1334.5408593749992-38.28  1331.8508593749991-35.84Q 1329.170859374999-33.4  1327.630859374999-30.08Q 1326.0908593749991-26.76  1326.0908593749991-22.85L 1326.0908593749991-22.85Q 1326.0908593749991-18.8  1327.730859374999-15.67Q 1329.360859374999-12.55  1332.240859374999-10.42Q 1335.120859374999-8.3  1339.0808593749991-7.2Q 1343.0308593749992-6.1  1347.670859374999-6.1L 1347.670859374999-6.1Q 1355.190859374999-6.1  1360.980859374999-8.5Q 1366.7608593749992-10.89  1371.3108593749992-15.87L 1371.3108593749992-15.87L 1376.480859374999-9.96Q 1371.160859374999-4.25  1364.130859374999-1.39Q 1357.1008593749991 1.46  1347.920859374999 1.46L 1347.920859374999 1.46Q 1340.200859374999 1.46  1334.170859374999-0.27Q 1328.140859374999-2  1323.990859374999-5.18Q 1319.8408593749991-8.35  1317.670859374999-12.79Q 1315.500859374999-17.24  1315.500859374999-22.66ZM 1368.180859374999-26.66L 1368.180859374999-28.52L 1379.3108593749992-28.52L 1379.3108593749992-45.02L 1381.2708593749992-45.02L 1381.2708593749992-26.66L 1368.180859374999-26.66ZM 1329.610859374999-22.85L 1329.610859374999-22.85Q 1329.610859374999-26.12  1330.880859374999-28.83Q 1332.150859374999-31.54  1334.370859374999-33.5Q 1336.5908593749991-35.45  1339.620859374999-36.52Q 1342.640859374999-37.6  1346.160859374999-37.6L 1346.160859374999-37.6Q 1348.2608593749992-37.6  1350.410859374999-37.21Q 1352.5608593749992-36.82  1354.460859374999-36.11Q 1356.360859374999-35.4  1357.880859374999-34.42Q 1359.390859374999-33.45  1360.2708593749992-32.28L 1360.2708593749992-32.28Q 1357.3408593749991-33.84  1354.000859374999-34.79Q 1350.650859374999-35.74  1346.3508593749991-35.74L 1346.3508593749991-35.74Q 1342.940859374999-35.74  1340.200859374999-34.69Q 1337.470859374999-33.64  1335.5408593749992-31.88Q 1333.610859374999-30.13  1332.5908593749991-27.78Q 1331.5608593749992-25.44  1331.5608593749992-22.85L 1331.5608593749992-22.85Q 1331.5608593749992-20.26  1332.370859374999-18.29Q 1333.170859374999-16.31  1334.680859374999-14.72Q 1336.200859374999-13.13  1338.400859374999-11.94Q 1340.5908593749991-10.74  1343.380859374999-9.77L 1343.380859374999-9.77Q 1340.150859374999-10.06  1337.5908593749991-11.13Q 1335.0308593749992-12.21  1333.2708593749992-13.89Q 1331.5108593749992-15.58  1330.5608593749992-17.85Q 1329.610859374999-20.12  1329.610859374999-22.85ZM 1322.480859374999-2.25L 1322.480859374999-2.25Q 1324.8208593749991-0.54  1327.700859374999 0.81Q 1330.5808593749991 2.15  1333.880859374999 3.05Q 1337.170859374999 3.96  1340.740859374999 4.44Q 1344.3008593749992 4.93  1347.970859374999 4.93L 1347.970859374999 4.93Q 1352.360859374999 4.93  1356.5808593749991 4.22Q 1360.8108593749992 3.52  1364.5208593749992 2.2Q 1368.230859374999 0.88  1371.3108593749992-1Q 1374.380859374999-2.88  1376.5308593749992-5.22L 1376.5308593749992-5.22L 1377.950859374999-3.96Q 1372.620859374999 1.46  1365.0308593749992 4.13Q 1357.440859374999 6.79  1347.870859374999 6.79L 1347.870859374999 6.79Q 1343.910859374999 6.79  1340.0108593749992 6.2Q 1336.1008593749991 5.62  1332.680859374999 4.47Q 1329.2608593749992 3.32  1326.6008593749991 1.64Q 1323.940859374999-0.05  1322.480859374999-2.25ZM 1403.166406249999-17.48L 1403.166406249999-38.82L 1392.426406249999-38.82L 1392.426406249999-47.12L 1403.166406249999-47.12L 1403.166406249999-56.98L 1413.666406249999-61.38L 1413.666406249999-47.12L 1437.936406249999-47.12L 1437.936406249999-38.82L 1413.666406249999-38.82L 1413.666406249999-15.53Q 1413.666406249999-11.87  1415.9564062499992-10.08Q 1418.2564062499991-8.3  1422.2064062499992-8.3L 1422.2064062499992-8.3L 1435.9764062499992-8.3L 1435.9764062499992 0L 1422.2064062499992 0Q 1418.2564062499991 0  1414.7864062499991-0.85Q 1411.316406249999-1.71  1408.7364062499992-3.74Q 1406.146406249999-5.76  1404.656406249999-9.11Q 1403.166406249999-12.45  1403.166406249999-17.48L 1403.166406249999-17.48ZM 1417.176406249999-50.05L 1417.176406249999-58.69L 1419.136406249999-59.57L 1419.136406249999-50.05L 1417.176406249999-50.05ZM 1417.086406249999-13.53L 1417.086406249999-35.94L 1441.4464062499992-35.94L 1441.4464062499992-44.92L 1443.396406249999-44.92L 1443.396406249999-34.08L 1419.0364062499991-34.08L 1419.0364062499991-11.57Q 1417.376406249999-12.01  1417.086406249999-13.53L 1417.086406249999-13.53ZM 1395.356406249999-33.54L 1395.356406249999-35.4L 1401.2164062499992-35.4L 1401.2164062499992-33.54L 1395.356406249999-33.54ZM 1402.876406249999-4.2L 1402.876406249999-4.2Q 1404.436406249999-2  1406.366406249999-0.54Q 1408.296406249999 0.93  1410.686406249999 1.81Q 1413.076406249999 2.69  1415.906406249999 3.05Q 1418.7464062499992 3.42  1422.106406249999 3.42L 1422.106406249999 3.42L 1439.4964062499992 3.42L 1439.4964062499992-6.1L 1441.4464062499992-6.1L 1441.4464062499992 5.27L 1421.866406249999 5.27Q 1418.106406249999 5.27  1415.0264062499991 4.79Q 1411.9564062499992 4.3  1409.586406249999 3.2Q 1407.2164062499992 2.1  1405.5364062499991 0.27Q 1403.846406249999-1.56  1402.876406249999-4.2ZM 1465.5943749999992-59.28L 1465.5943749999992-69.04L 1477.5543749999993-69.04L 1477.5543749999993-59.28L 1465.5943749999992-59.28ZM 1468.5243749999993-54L 1468.5243749999993-55.86L 1481.0743749999992-55.86L 1481.0743749999992-66.31L 1483.0243749999993-66.31L 1483.0243749999993-54L 1468.5243749999993-54ZM 1455.3343749999992 0L 1455.3343749999992-7.32L 1468.5243749999993-7.32L 1467.0543749999993-38.82L 1455.3343749999992-38.82L 1455.3343749999992-47.12L 1477.5543749999993-47.12L 1477.5543749999993-7.32L 1488.7843749999993-7.32L 1488.7843749999993 0L 1455.3343749999992 0ZM 1480.9743749999993-10.25L 1480.9743749999993-44.63L 1482.9243749999994-44.63L 1482.9243749999994-10.25L 1480.9743749999993-10.25ZM 1458.2643749999993-33.54L 1458.2643749999993-35.4L 1465.0043749999993-35.4L 1465.0043749999993-33.54L 1458.2643749999993-33.54ZM 1458.2643749999993 3.42L 1492.3043749999993 3.42L 1492.3043749999993-4.59L 1494.2543749999993-4.59L 1494.2543749999993 5.27L 1458.2643749999993 5.27L 1458.2643749999993 3.42ZM 1502.094609374999-22.8L 1502.094609374999-22.8Q 1502.094609374999-28.13  1504.3846093749992-32.84Q 1506.6846093749991-37.55  1510.804609374999-41.04Q 1514.9346093749991-44.53  1520.6946093749991-46.56Q 1526.454609374999-48.58  1533.344609374999-48.58L 1533.344609374999-48.58Q 1540.564609374999-48.58  1546.254609374999-46.66Q 1551.9446093749991-44.73  1555.8746093749992-41.31Q 1559.804609374999-37.89  1561.8846093749992-33.2Q 1563.954609374999-28.52  1563.954609374999-23L 1563.954609374999-23Q 1563.954609374999-17.68  1561.6846093749991-13.18Q 1559.4146093749991-8.69  1555.234609374999-5.44Q 1551.064609374999-2.2  1545.224609374999-0.37Q 1539.3946093749992 1.46  1532.214609374999 1.46L 1532.214609374999 1.46Q 1525.4346093749991 1.46  1519.8846093749992-0.56Q 1514.344609374999-2.59  1510.3946093749992-5.96Q 1506.4346093749991-9.33  1504.264609374999-13.7Q 1502.094609374999-18.07  1502.094609374999-22.8ZM 1509.754609374999-2.25L 1509.754609374999-2.25Q 1514.494609374999 1.17  1520.224609374999 3.03Q 1525.964609374999 4.88  1533.1946093749991 4.88L 1533.1946093749991 4.88Q 1539.9346093749991 4.88  1546.1346093749992 3.05Q 1552.334609374999 1.22  1557.074609374999-2.34Q 1561.804609374999-5.91  1564.6346093749992-11.11Q 1567.474609374999-16.31  1567.474609374999-23L 1567.474609374999-23Q 1567.474609374999-26.27  1566.564609374999-29.61Q 1565.6646093749991-32.96  1564.024609374999-36.04Q 1562.3946093749992-39.11  1560.044609374999-41.77Q 1557.704609374999-44.43  1554.824609374999-46.29L 1554.824609374999-46.29Q 1558.094609374999-44.82  1560.804609374999-42.43Q 1563.514609374999-40.04  1565.4246093749991-36.99Q 1567.324609374999-33.94  1568.3746093749992-30.37Q 1569.4246093749991-26.81  1569.4246093749991-23L 1569.4246093749991-23Q 1569.4246093749991-18.21  1568.054609374999-14.14Q 1566.6846093749991-10.06  1564.274609374999-6.76Q 1561.8546093749992-3.47  1558.514609374999-0.93Q 1555.1646093749991 1.61  1551.1646093749991 3.3Q 1547.1546093749992 4.98  1542.6446093749992 5.86Q 1538.1246093749992 6.74  1533.4346093749991 6.74L 1533.4346093749991 6.74Q 1529.534609374999 6.74  1525.964609374999 6.13Q 1522.4046093749992 5.52  1519.3546093749992 4.37Q 1516.294609374999 3.22  1513.8546093749992 1.56Q 1511.4146093749991-0.1  1509.754609374999-2.25ZM 1512.9346093749991-23L 1512.9346093749991-23Q 1512.9346093749991-19.24  1514.3746093749992-16.14Q 1515.814609374999-13.04  1518.4446093749991-10.82Q 1521.084609374999-8.59  1524.774609374999-7.37Q 1528.454609374999-6.15  1532.9446093749991-6.15L 1532.9446093749991-6.15Q 1537.494609374999-6.15  1541.204609374999-7.4Q 1544.9146093749991-8.64  1547.594609374999-10.86Q 1550.284609374999-13.09  1551.744609374999-16.19Q 1553.214609374999-19.29  1553.214609374999-23L 1553.214609374999-23Q 1553.214609374999-26.66  1551.744609374999-29.91Q 1550.284609374999-33.15  1547.6446093749992-35.62Q 1545.014609374999-38.09  1541.324609374999-39.53Q 1537.6346093749992-40.97  1533.1946093749991-40.97L 1533.1946093749991-40.97Q 1528.554609374999-40.97  1524.814609374999-39.58Q 1521.084609374999-38.18  1518.4446093749991-35.77Q 1515.814609374999-33.35  1514.3746093749992-30.08Q 1512.9346093749991-26.81  1512.9346093749991-23ZM 1516.344609374999-22.8L 1516.344609374999-22.8Q 1516.344609374999-25.88  1517.564609374999-28.59Q 1518.784609374999-31.3  1521.014609374999-33.28Q 1523.234609374999-35.25  1526.334609374999-36.4Q 1529.4346093749991-37.55  1533.1946093749991-37.55L 1533.1946093749991-37.55Q 1535.584609374999-37.55  1537.834609374999-37.04Q 1540.074609374999-36.52  1541.984609374999-35.55Q 1543.8846093749992-34.57  1545.3546093749992-33.18Q 1546.814609374999-31.79  1547.6946093749991-30.03L 1547.6946093749991-30.03Q 1544.474609374999-32.96  1540.984609374999-34.33Q 1537.494609374999-35.69  1533.094609374999-35.69L 1533.094609374999-35.69Q 1529.9246093749991-35.69  1527.234609374999-34.67Q 1524.554609374999-33.64  1522.544609374999-31.88Q 1520.544609374999-30.13  1519.4246093749991-27.78Q 1518.304609374999-25.44  1518.304609374999-22.8L 1518.304609374999-22.8Q 1518.304609374999-20.61  1518.834609374999-18.7Q 1519.3746093749992-16.8  1520.6646093749991-15.16Q 1521.964609374999-13.53  1524.1146093749992-12.21Q 1526.264609374999-10.89  1529.484609374999-9.86L 1529.484609374999-9.86Q 1526.554609374999-10.06  1524.1346093749992-11.11Q 1521.714609374999-12.16  1519.984609374999-13.87Q 1518.254609374999-15.58  1517.304609374999-17.87Q 1516.344609374999-20.17  1516.344609374999-22.8ZM 1583.709062499999 0L 1583.709062499999-7.32L 1594.449062499999-7.32L 1594.449062499999-38.82L 1583.709062499999-38.82L 1583.709062499999-47.12L 1604.949062499999-47.12L 1604.949062499999-39.75Q 1606.459062499999-41.6  1608.5790624999988-43.21Q 1610.709062499999-44.82  1613.3390624999988-46.02Q 1615.979062499999-47.22  1619.0590624999988-47.9Q 1622.1290624999988-48.58  1625.499062499999-48.58L 1625.499062499999-48.58Q 1630.5790624999988-48.58  1634.729062499999-47.14Q 1638.8790624999988-45.7  1641.8090624999988-42.7Q 1644.739062499999-39.7  1646.3290624999988-35.13Q 1647.9190624999987-30.57  1647.9190624999987-24.32L 1647.9190624999987-24.32L 1647.9190624999987-7.32L 1658.659062499999-7.32L 1658.659062499999 0L 1629.1190624999988 0L 1629.1190624999988-7.32L 1637.419062499999-7.32L 1637.419062499999-20.17Q 1637.419062499999-24.12  1637.0490624999989-27.22Q 1636.679062499999-30.32  1635.999062499999-32.08L 1635.999062499999-32.08Q 1635.1190624999988-34.33  1633.7790624999989-35.89Q 1632.439062499999-37.45  1630.749062499999-38.43Q 1629.0690624999988-39.4  1627.0690624999988-39.84Q 1625.0590624999988-40.28  1622.8190624999988-40.28L 1622.8190624999988-40.28Q 1620.419062499999-40.28  1617.8590624999988-39.4Q 1615.2990624999989-38.53  1612.8790624999988-36.94Q 1610.459062499999-35.35  1608.3890624999988-33.2Q 1606.3090624999988-31.05  1604.949062499999-28.56L 1604.949062499999-28.56L 1604.949062499999-7.32L 1613.249062499999-7.32L 1613.249062499999 0L 1583.709062499999 0ZM 1651.429062499999-10.25L 1651.429062499999-23.97Q 1651.429062499999-28.27  1650.7690624999989-31.96Q 1650.1090624999988-35.64  1648.7890624999989-38.6Q 1647.479062499999-41.55  1645.5490624999989-43.7Q 1643.6190624999988-45.85  1641.0790624999988-47.12L 1641.0790624999988-47.12Q 1644.3990624999988-46.29  1646.739062499999-44.31Q 1649.0890624999988-42.33  1650.5490624999989-39.31Q 1652.0190624999989-36.28  1652.699062499999-32.32Q 1653.3790624999988-28.37  1653.3790624999988-23.63L 1653.3790624999988-23.63L 1653.3790624999988-10.25L 1651.429062499999-10.25ZM 1608.459062499999-10.25L 1608.459062499999-27.34Q 1609.679062499999-29.49  1611.3690624999988-31.25Q 1613.0490624999989-33.01  1615.0290624999989-34.25Q 1617.009062499999-35.5  1619.179062499999-36.18Q 1621.3490624999988-36.87  1623.499062499999-36.87L 1623.499062499999-36.87Q 1626.8690624999988-36.87  1628.969062499999-35.6Q 1631.0690624999988-34.33  1632.0490624999989-32.37L 1632.0490624999989-32.37Q 1630.5290624999989-33.5  1628.509062499999-34.28Q 1626.479062499999-35.06  1623.3990624999988-35.06L 1623.3990624999988-35.06Q 1621.499062499999-35.06  1619.5490624999989-34.35Q 1617.5890624999988-33.64  1615.8290624999988-32.47Q 1614.0790624999988-31.3  1612.6590624999988-29.79Q 1611.249062499999-28.27  1610.419062499999-26.71L 1610.419062499999-26.71L 1610.419062499999-10.25L 1608.459062499999-10.25ZM 1586.6390624999988-33.54L 1586.6390624999988-35.4L 1592.3990624999988-35.4L 1592.3990624999988-33.54L 1586.6390624999988-33.54ZM 1632.0490624999989 3.42L 1662.1690624999987 3.42L 1662.1690624999987-4.59L 1664.1290624999988-4.59L 1664.1290624999988 5.27L 1632.0490624999989 5.27L 1632.0490624999989 3.42ZM 1586.6390624999988 3.42L 1616.759062499999 3.42L 1616.759062499999-4.59L 1618.719062499999-4.59L 1618.719062499999 5.27L 1586.6390624999988 5.27L 1586.6390624999988 3.42Z" data-textpath="Edward Jr. C  nstruction " data-text-anchor="middle" data-font-size="100" data-letterspacing="1" data-side="left" data-offset="0.5" data-dx="0" data-dy="0" data-xmlspace="preserve" data-href="" data-font="Vast Shadow" data-font-src="/Content/clientfonts/vastshadow.woff" data-font-scale="contain" transform="translate(0,0)" data-x="0" data-y="0" fill="url('#linearGradientSkfepcdc01c')"></path>
        </g>
      </svg>
    </g>
  </g>
</svg>